<svg xmlns="http://www.w3.org/2000/svg" xmlns:xlink="http://www.w3.org/1999/xlink" width="200" zoomAndPan="magnify" viewBox="0 0 150 149.999998" height="200" preserveAspectRatio="xMidYMid meet" version="1.0"><defs><clipPath id="3b39bb55d1"><path d="M 9.070312 16.410156 L 141.070312 16.410156 L 141.070312 148.410156 L 9.070312 148.410156 Z M 9.070312 16.410156 " clip-rule="nonzero"/></clipPath><clipPath id="8fc8ea0ab9"><path d="M 51.554688 42.691406 L 98.804688 42.691406 L 98.804688 122.191406 L 51.554688 122.191406 Z M 51.554688 42.691406 " clip-rule="nonzero"/></clipPath><clipPath id="70d004d7ce"><path d="M 64.601562 67.539062 L 85.601562 67.539062 L 85.601562 78 L 64.601562 78 Z M 64.601562 67.539062 " clip-rule="nonzero"/></clipPath><clipPath id="27037ab5bc"><path d="M 71 76 L 85 76 L 85 89.289062 L 71 89.289062 Z M 71 76 " clip-rule="nonzero"/></clipPath></defs><g clip-path="url(#3b39bb55d1)"><path fill="#56aeff" d="M 75.070312 16.410156 C 38.617188 16.410156 9.070312 45.960938 9.070312 82.410156 C 9.070312 118.859375 38.617188 148.410156 75.070312 148.410156 C 111.519531 148.410156 141.070312 118.859375 141.070312 82.410156 C 141.070312 45.960938 111.519531 16.410156 75.070312 16.410156 " fill-opacity="1" fill-rule="nonzero"/></g><g clip-path="url(#8fc8ea0ab9)"><path fill="#ffffff" d="M 89.710938 42.691406 L 60.652344 42.691406 C 55.640625 42.691406 51.570312 46.738281 51.570312 51.722656 L 51.570312 113.15625 C 51.570312 118.140625 55.640625 122.191406 60.652344 122.191406 L 89.710938 122.191406 C 94.722656 122.191406 98.792969 118.140625 98.792969 113.15625 L 98.792969 51.722656 C 98.792969 46.738281 94.722656 42.691406 89.710938 42.691406 Z M 75.179688 118.578125 C 72.167969 118.578125 69.734375 116.15625 69.734375 113.15625 C 69.734375 110.15625 72.167969 107.734375 75.179688 107.734375 C 78.195312 107.734375 80.628906 110.15625 80.628906 113.15625 C 80.628906 116.15625 78.195312 118.578125 75.179688 118.578125 Z M 91.527344 104.121094 L 58.835938 104.121094 L 58.835938 53.53125 L 91.527344 53.53125 Z M 91.527344 104.121094 " fill-opacity="1" fill-rule="nonzero"/></g><g clip-path="url(#70d004d7ce)"><path fill="#ffffff" d="M 83.121094 73.90625 C 82.789062 73.90625 82.554688 73.660156 82.554688 73.328125 C 82.554688 72.988281 82.789062 72.742188 83.125 72.742188 C 83.464844 72.742188 83.691406 72.980469 83.691406 73.328125 C 83.691406 73.660156 83.464844 73.90625 83.121094 73.90625 Z M 81.054688 73.839844 L 80.144531 73.839844 L 79.855469 72.753906 C 79.777344 72.453125 79.722656 72.175781 79.65625 71.796875 L 79.644531 71.796875 C 79.585938 72.183594 79.523438 72.464844 79.441406 72.753906 L 79.128906 73.839844 L 78.222656 73.839844 L 77.324219 70.757812 L 78.304688 70.757812 L 78.554688 72.019531 C 78.617188 72.339844 78.679688 72.679688 78.730469 73.03125 L 78.746094 73.03125 C 78.808594 72.679688 78.898438 72.328125 78.972656 72.023438 L 79.300781 70.757812 L 80.0625 70.757812 L 80.375 71.988281 C 80.457031 72.332031 80.539062 72.679688 80.601562 73.03125 L 80.613281 73.03125 C 80.660156 72.679688 80.722656 72.332031 80.792969 71.980469 L 81.058594 70.757812 L 82.003906 70.757812 Z M 75.644531 73.839844 L 74.734375 73.839844 L 74.445312 72.753906 C 74.367188 72.453125 74.3125 72.175781 74.246094 71.796875 L 74.234375 71.796875 C 74.179688 72.183594 74.113281 72.464844 74.03125 72.753906 L 73.722656 73.839844 L 72.8125 73.839844 L 71.914062 70.757812 L 72.894531 70.757812 L 73.144531 72.019531 C 73.207031 72.339844 73.269531 72.679688 73.320312 73.03125 L 73.332031 73.03125 C 73.398438 72.679688 73.488281 72.328125 73.5625 72.023438 L 73.890625 70.757812 L 74.652344 70.757812 L 74.964844 71.988281 C 75.046875 72.332031 75.128906 72.679688 75.191406 73.03125 L 75.207031 73.03125 C 75.25 72.679688 75.3125 72.332031 75.382812 71.980469 L 75.648438 70.757812 L 76.59375 70.757812 Z M 70.234375 73.839844 L 69.324219 73.839844 L 69.035156 72.753906 C 68.957031 72.453125 68.902344 72.175781 68.835938 71.796875 L 68.824219 71.796875 C 68.769531 72.183594 68.703125 72.464844 68.621094 72.753906 L 68.3125 73.839844 L 67.40625 73.839844 L 66.503906 70.757812 L 67.484375 70.757812 L 67.734375 72.019531 C 67.796875 72.339844 67.859375 72.679688 67.910156 73.03125 L 67.925781 73.03125 C 67.988281 72.679688 68.078125 72.328125 68.152344 72.023438 L 68.484375 70.757812 L 69.242188 70.757812 L 69.554688 71.988281 C 69.636719 72.332031 69.71875 72.679688 69.78125 73.03125 L 69.796875 73.03125 C 69.839844 72.679688 69.902344 72.332031 69.972656 71.980469 L 70.238281 70.757812 L 71.183594 70.757812 Z M 84.363281 67.546875 L 65.832031 67.546875 C 65.152344 67.546875 64.597656 68.09375 64.597656 68.769531 L 64.597656 75.898438 C 64.597656 76.574219 65.152344 77.121094 65.832031 77.121094 L 71.96875 77.121094 C 72.027344 76.910156 72.109375 76.699219 72.222656 76.503906 C 72.589844 75.855469 73.1875 75.390625 73.910156 75.191406 C 74.203125 75.109375 74.511719 75.074219 74.824219 75.09375 C 75.148438 75.109375 75.460938 75.183594 75.757812 75.308594 C 76.546875 75.644531 77.128906 76.300781 77.359375 77.117188 L 77.359375 77.121094 L 84.363281 77.121094 C 85.042969 77.121094 85.597656 76.574219 85.597656 75.898438 L 85.597656 68.769531 C 85.597656 68.09375 85.042969 67.546875 84.363281 67.546875 " fill-opacity="1" fill-rule="nonzero"/></g><g clip-path="url(#27037ab5bc)"><path fill="#ffffff" d="M 72.980469 83.484375 C 72.816406 83.472656 72.660156 83.558594 72.582031 83.699219 C 72.464844 83.902344 72.539062 84.164062 72.746094 84.277344 C 72.773438 84.292969 76.179688 86.046875 77.417969 87.476562 L 77.898438 87.941406 C 78.027344 88.050781 78.152344 88.128906 78.277344 88.183594 C 78.539062 88.292969 78.832031 88.253906 79.015625 88.203125 L 81.742188 87.449219 C 82.363281 87.261719 82.792969 86.878906 83.011719 86.304688 C 83.195312 85.828125 83.167969 85.34375 83.105469 85.132812 L 81.671875 80.03125 C 81.636719 79.90625 81.546875 79.804688 81.425781 79.753906 C 81.339844 79.714844 81.234375 79.707031 81.144531 79.734375 C 81.03125 79.765625 80.941406 79.835938 80.886719 79.9375 C 80.828125 80.039062 80.8125 80.148438 80.84375 80.257812 L 81.207031 81.539062 C 81.28125 81.804688 81.113281 82.101562 80.847656 82.179688 C 80.738281 82.210938 80.617188 82.207031 80.511719 82.164062 C 80.355469 82.105469 80.234375 81.976562 80.191406 81.816406 L 79.6875 80.023438 C 79.652344 79.894531 79.5625 79.796875 79.441406 79.746094 C 79.355469 79.707031 79.253906 79.703125 79.160156 79.726562 C 78.929688 79.789062 78.796875 80.027344 78.859375 80.253906 L 79.367188 82.046875 C 79.402344 82.175781 79.382812 82.328125 79.316406 82.445312 C 79.25 82.566406 79.121094 82.660156 78.988281 82.695312 C 78.882812 82.71875 78.761719 82.710938 78.664062 82.671875 C 78.515625 82.609375 78.414062 82.5 78.363281 82.359375 L 77.675781 79.925781 C 77.640625 79.800781 77.550781 79.699219 77.433594 79.648438 C 77.34375 79.613281 77.242188 79.605469 77.148438 79.632812 C 76.921875 79.695312 76.789062 79.929688 76.851562 80.15625 L 77.527344 82.554688 C 77.5625 82.679688 77.542969 82.824219 77.480469 82.941406 C 77.429688 83.054688 77.316406 83.152344 77.179688 83.199219 C 77.164062 83.203125 77.148438 83.210938 77.128906 83.214844 C 77.035156 83.234375 76.925781 83.226562 76.828125 83.191406 C 76.820312 83.191406 76.816406 83.1875 76.808594 83.183594 C 76.800781 83.179688 76.792969 83.175781 76.785156 83.171875 C 76.644531 83.105469 76.535156 82.96875 76.5 82.816406 L 75.074219 77.753906 C 75.039062 77.625 74.949219 77.527344 74.832031 77.472656 C 74.742188 77.4375 74.640625 77.429688 74.550781 77.457031 C 74.433594 77.488281 74.34375 77.558594 74.289062 77.65625 C 74.230469 77.757812 74.21875 77.871094 74.25 77.980469 L 75.945312 84.011719 C 76 84.199219 75.933594 84.417969 75.789062 84.542969 C 75.773438 84.558594 75.757812 84.570312 75.746094 84.578125 C 75.605469 84.679688 75.394531 84.699219 75.238281 84.636719 C 75.222656 84.628906 75.207031 84.621094 75.191406 84.613281 L 73.179688 83.542969 C 73.15625 83.53125 73.140625 83.523438 73.125 83.519531 C 73.082031 83.5 73.03125 83.488281 72.980469 83.484375 Z M 78.539062 89.265625 C 78.316406 89.253906 78.09375 89.199219 77.878906 89.109375 C 77.660156 89.015625 77.449219 88.886719 77.238281 88.707031 C 77.230469 88.703125 77.203125 88.679688 77.199219 88.675781 L 76.691406 88.183594 C 76.683594 88.171875 76.671875 88.164062 76.664062 88.152344 C 75.5625 86.878906 72.308594 85.191406 72.277344 85.171875 C 71.554688 84.769531 71.304688 83.894531 71.695312 83.203125 C 71.96875 82.722656 72.484375 82.445312 73.039062 82.476562 C 73.207031 82.488281 73.371094 82.523438 73.527344 82.589844 C 73.574219 82.613281 73.625 82.632812 73.671875 82.660156 L 74.660156 83.1875 L 73.269531 78.253906 C 73.167969 77.886719 73.214844 77.496094 73.402344 77.164062 C 73.59375 76.828125 73.902344 76.589844 74.273438 76.484375 C 74.585938 76.398438 74.925781 76.417969 75.226562 76.546875 C 75.632812 76.71875 75.933594 77.058594 76.054688 77.480469 L 76.445312 78.863281 C 76.570312 78.773438 76.714844 78.703125 76.875 78.660156 C 77.191406 78.574219 77.53125 78.59375 77.828125 78.722656 C 78.019531 78.800781 78.183594 78.917969 78.320312 79.0625 C 78.476562 78.921875 78.667969 78.816406 78.886719 78.757812 C 79.199219 78.667969 79.539062 78.691406 79.839844 78.816406 C 80.003906 78.886719 80.148438 78.980469 80.269531 79.097656 C 80.4375 78.941406 80.640625 78.828125 80.871094 78.761719 C 81.179688 78.675781 81.523438 78.699219 81.824219 78.824219 C 82.230469 78.996094 82.53125 79.335938 82.648438 79.757812 L 84.085938 84.855469 C 84.195312 85.242188 84.234375 85.949219 83.960938 86.664062 C 83.730469 87.269531 83.207031 88.066406 82.027344 88.414062 L 79.289062 89.175781 C 79.117188 89.222656 78.851562 89.28125 78.539062 89.265625 " fill-opacity="1" fill-rule="nonzero"/></g></svg>