<svg xmlns="http://www.w3.org/2000/svg" xmlns:xlink="http://www.w3.org/1999/xlink" width="200" zoomAndPan="magnify" viewBox="0 0 150 149.999998" height="200" preserveAspectRatio="xMidYMid meet" version="1.0"><defs><clipPath id="d1acaa4018"><path d="M 9.070312 16.410156 L 141.070312 16.410156 L 141.070312 148.410156 L 9.070312 148.410156 Z M 9.070312 16.410156 " clip-rule="nonzero"/></clipPath><clipPath id="96ce4e3a8f"><path d="M 35.472656 42.339844 L 114.222656 42.339844 L 114.222656 107.589844 L 35.472656 107.589844 Z M 35.472656 42.339844 " clip-rule="nonzero"/></clipPath></defs><g clip-path="url(#d1acaa4018)"><path fill="#56aeff" d="M 75.070312 16.410156 C 38.617188 16.410156 9.070312 45.960938 9.070312 82.410156 C 9.070312 118.859375 38.617188 148.410156 75.070312 148.410156 C 111.519531 148.410156 141.070312 118.859375 141.070312 82.410156 C 141.070312 45.960938 111.519531 16.410156 75.070312 16.410156 " fill-opacity="1" fill-rule="nonzero"/></g><g clip-path="url(#96ce4e3a8f)"><path fill="#ffffff" d="M 75.707031 55.222656 C 76.175781 55.222656 76.5625 54.835938 76.5625 54.363281 L 76.5625 51.101562 C 76.5625 46.269531 72.648438 42.347656 67.828125 42.347656 L 44.207031 42.347656 C 39.382812 42.347656 35.472656 46.269531 35.472656 51.101562 L 35.472656 98.828125 C 35.472656 103.660156 39.382812 107.582031 44.207031 107.582031 L 67.828125 107.582031 C 72.648438 107.582031 76.5625 103.660156 76.5625 98.828125 L 76.5625 88.699219 C 76.5625 88.226562 76.175781 87.839844 75.707031 87.839844 C 75.230469 87.839844 74.851562 88.226562 74.851562 88.699219 L 74.851562 98.828125 C 74.851562 102.714844 71.703125 105.867188 67.828125 105.867188 L 44.207031 105.867188 C 40.332031 105.867188 37.183594 102.714844 37.183594 98.828125 L 37.183594 51.101562 C 37.183594 47.214844 40.332031 44.0625 44.207031 44.0625 L 67.828125 44.0625 C 71.703125 44.0625 74.851562 47.214844 74.851562 51.101562 L 74.851562 54.363281 C 74.851562 54.835938 75.230469 55.222656 75.707031 55.222656 Z M 62.863281 99 C 62.863281 97.105469 61.332031 95.566406 59.4375 95.566406 L 52.589844 95.566406 C 50.703125 95.566406 49.167969 97.105469 49.167969 99 C 49.167969 100.894531 50.703125 102.433594 52.589844 102.433594 L 59.4375 102.433594 C 61.332031 102.433594 62.863281 100.894531 62.863281 99 Z M 71.421875 87.839844 L 60.296875 87.839844 C 58.878906 87.839844 57.726562 86.6875 57.726562 85.265625 L 57.726562 57.796875 C 57.726562 56.375 58.878906 55.222656 60.296875 55.222656 L 71.421875 55.222656 L 71.421875 50.929688 C 71.421875 50.457031 71.042969 50.070312 70.566406 50.070312 L 41.464844 50.070312 C 40.992188 50.070312 40.609375 50.457031 40.609375 50.929688 L 40.609375 92.132812 C 40.609375 92.605469 40.992188 92.992188 41.464844 92.992188 L 70.566406 92.992188 C 71.042969 92.992188 71.421875 92.605469 71.421875 92.132812 Z M 114.226562 57.796875 C 114.226562 57.324219 113.839844 56.9375 113.367188 56.9375 L 60.296875 56.9375 C 59.824219 56.9375 59.4375 57.324219 59.4375 57.796875 L 59.4375 85.265625 C 59.4375 85.738281 59.824219 86.125 60.296875 86.125 L 113.367188 86.125 C 113.839844 86.125 114.226562 85.738281 114.226562 85.265625 Z M 61.152344 84.40625 L 67.953125 84.40625 C 67.558594 80.828125 64.722656 77.980469 61.152344 77.585938 Z M 69.675781 58.65625 C 69.265625 63.183594 65.664062 66.789062 61.152344 67.203125 L 61.152344 75.859375 C 65.664062 76.269531 69.265625 79.878906 69.675781 84.40625 L 103.988281 84.40625 C 104.398438 79.878906 107.996094 76.273438 112.511719 75.859375 L 112.511719 67.203125 C 107.996094 66.792969 104.398438 63.183594 103.988281 58.65625 Z M 112.511719 77.585938 C 108.945312 77.980469 106.105469 80.828125 105.710938 84.40625 L 112.511719 84.40625 Z M 85.976562 66.457031 C 84.230469 66.785156 83.410156 68.117188 83.410156 69.386719 C 83.410156 70.847656 84.503906 72.390625 86.832031 72.390625 C 87.925781 72.390625 88.546875 72.988281 88.546875 73.675781 C 88.546875 74.363281 87.925781 74.964844 86.832031 74.964844 L 84.265625 74.964844 C 83.792969 74.964844 83.410156 75.351562 83.410156 75.824219 C 83.410156 76.296875 83.792969 76.679688 84.265625 76.679688 L 85.976562 76.679688 L 85.976562 78.398438 C 85.976562 78.871094 86.359375 79.257812 86.832031 79.257812 C 87.304688 79.257812 87.691406 78.871094 87.691406 78.398438 L 87.691406 76.605469 C 89.433594 76.277344 90.257812 74.945312 90.257812 73.675781 C 90.257812 72.214844 89.160156 70.671875 86.832031 70.671875 C 85.738281 70.671875 85.121094 70.074219 85.121094 69.386719 C 85.121094 68.699219 85.738281 68.097656 86.832031 68.097656 L 89.402344 68.097656 C 89.875 68.097656 90.257812 67.710938 90.257812 67.238281 C 90.257812 66.765625 89.875 66.382812 89.402344 66.382812 L 87.691406 66.382812 L 87.691406 64.664062 C 87.691406 64.191406 87.304688 63.804688 86.832031 63.804688 C 86.359375 63.804688 85.976562 64.191406 85.976562 64.664062 Z M 105.710938 58.65625 C 106.105469 62.234375 108.941406 65.082031 112.511719 65.476562 L 112.511719 58.65625 Z M 61.152344 65.476562 C 64.71875 65.082031 67.558594 62.234375 67.953125 58.65625 L 61.152344 58.65625 L 61.152344 65.476562 " fill-opacity="1" fill-rule="evenodd"/></g></svg>