<svg xmlns="http://www.w3.org/2000/svg" xmlns:xlink="http://www.w3.org/1999/xlink" width="200" zoomAndPan="magnify" viewBox="0 0 150 149.999998" height="200" preserveAspectRatio="xMidYMid meet" version="1.0"><defs><clipPath id="c53e1c4770"><path d="M 9.070312 16.410156 L 141.070312 16.410156 L 141.070312 148.410156 L 9.070312 148.410156 Z M 9.070312 16.410156 " clip-rule="nonzero"/></clipPath><clipPath id="d298f16180"><path d="M 77.046875 54 L 137.046875 54 L 137.046875 99.019531 L 77.046875 99.019531 Z M 77.046875 54 " clip-rule="nonzero"/></clipPath><clipPath id="cea36c9139"><path d="M 17.046875 55.480469 L 62 55.480469 L 62 103.480469 L 17.046875 103.480469 Z M 17.046875 55.480469 " clip-rule="nonzero"/></clipPath><clipPath id="15b9983921"><path d="M 68 75 L 77.046875 75 L 77.046875 84 L 68 84 Z M 68 75 " clip-rule="nonzero"/></clipPath></defs><g clip-path="url(#c53e1c4770)"><path fill="#56aeff" d="M 75.070312 16.410156 C 38.617188 16.410156 9.070312 45.960938 9.070312 82.410156 C 9.070312 118.859375 38.617188 148.410156 75.070312 148.410156 C 111.519531 148.410156 141.070312 118.859375 141.070312 82.410156 C 141.070312 45.960938 111.519531 16.410156 75.070312 16.410156 " fill-opacity="1" fill-rule="nonzero"/></g><g clip-path="url(#d298f16180)"><path fill="#ffffff" d="M 135.609375 71.570312 C 135.601562 71.445312 135.570312 71.320312 135.523438 71.203125 C 134.5625 66.089844 130.171875 62.925781 124.519531 62.925781 C 122.496094 62.925781 119.609375 62.300781 117.359375 66.296875 L 107.097656 66.296875 C 107.25 64.300781 107.761719 63.375 108.34375 62.546875 C 109.195312 61.328125 110.167969 59.824219 110.167969 55.777344 C 110.167969 55.085938 109.609375 54.46875 108.917969 54.46875 C 108.230469 54.46875 107.671875 54.996094 107.671875 55.683594 C 107.671875 58.941406 107.035156 60.078125 106.296875 61.128906 C 105.582031 62.152344 104.777344 62.300781 104.59375 66.296875 L 96.734375 66.296875 C 94.484375 62.300781 91.597656 62.925781 89.574219 62.925781 C 83.949219 62.925781 79.402344 66.546875 78.507812 72.015625 C 78.082031 77.554688 77.09375 90.421875 77.09375 90.839844 C 77.09375 95.210938 80.59375 99.015625 84.582031 99.015625 C 88.152344 99.015625 90.472656 97.683594 91.488281 95.101562 C 91.5 95.074219 91.515625 95.042969 91.527344 95.019531 L 94.101562 88.984375 C 95.148438 89.777344 96.578125 90.757812 98.3125 90.757812 C 101.386719 90.757812 104.246094 88.273438 105.339844 86.277344 L 108.765625 86.277344 C 109.839844 88.273438 112.636719 90.398438 115.789062 90.398438 C 117.472656 90.398438 118.851562 89.949219 119.96875 89.292969 L 122.582031 95.089844 C 122.59375 95.109375 122.605469 95.097656 122.613281 95.121094 C 123.628906 97.703125 125.953125 98.996094 129.519531 98.996094 C 133.574219 98.996094 137.003906 95.390625 137.003906 91.136719 C 136.996094 90.722656 136.027344 77.3125 135.609375 71.570312 Z M 92.070312 78.28125 L 89.074219 78.28125 L 89.074219 80.78125 C 89.074219 81.472656 88.769531 82.027344 88.078125 82.027344 C 87.386719 82.027344 87.078125 81.472656 87.078125 80.78125 L 87.078125 78.28125 L 84.582031 78.28125 C 83.890625 78.28125 83.335938 77.976562 83.335938 77.28125 C 83.335938 76.589844 83.890625 76.285156 84.582031 76.285156 L 87.078125 76.285156 L 87.078125 73.285156 C 87.078125 72.59375 87.386719 72.039062 88.078125 72.039062 C 88.769531 72.039062 89.074219 72.597656 89.074219 73.285156 L 89.074219 76.285156 L 92.070312 76.285156 C 92.761719 76.285156 93.320312 76.589844 93.320312 77.28125 C 93.320312 77.976562 92.761719 78.28125 92.070312 78.28125 Z M 104.550781 78.28125 L 102.054688 78.28125 C 101.363281 78.28125 100.804688 77.976562 100.804688 77.28125 C 100.804688 76.589844 101.363281 76.285156 102.054688 76.285156 L 104.550781 76.285156 C 105.242188 76.285156 105.796875 76.589844 105.796875 77.28125 C 105.796875 77.976562 105.242188 78.28125 104.550781 78.28125 Z M 112.039062 78.28125 L 109.542969 78.28125 C 108.851562 78.28125 108.292969 77.976562 108.292969 77.28125 C 108.292969 76.589844 108.851562 76.285156 109.542969 76.285156 L 112.039062 76.285156 C 112.730469 76.285156 113.285156 76.589844 113.285156 77.28125 C 113.285156 77.976562 112.730469 78.28125 112.039062 78.28125 Z M 119.527344 83.277344 C 118.152344 83.277344 117.03125 82.160156 117.03125 80.78125 C 117.03125 79.40625 118.152344 78.28125 119.527344 78.28125 C 120.902344 78.28125 122.023438 79.40625 122.023438 80.78125 C 122.023438 82.160156 120.902344 83.277344 119.527344 83.277344 Z M 119.527344 75.785156 C 118.152344 75.785156 117.03125 74.667969 117.03125 73.285156 C 117.03125 71.910156 118.152344 70.789062 119.527344 70.789062 C 120.902344 70.789062 122.023438 71.910156 122.023438 73.285156 C 122.023438 74.667969 120.902344 75.785156 119.527344 75.785156 Z M 127.015625 83.277344 C 125.636719 83.277344 124.519531 82.160156 124.519531 80.78125 C 124.519531 79.40625 125.636719 78.28125 127.015625 78.28125 C 128.390625 78.28125 129.511719 79.40625 129.511719 80.78125 C 129.511719 82.160156 128.390625 83.277344 127.015625 83.277344 Z M 127.015625 75.785156 C 125.636719 75.785156 124.519531 74.667969 124.519531 73.285156 C 124.519531 71.910156 125.636719 70.789062 127.015625 70.789062 C 128.390625 70.789062 129.511719 71.910156 129.511719 73.285156 C 129.511719 74.667969 128.390625 75.785156 127.015625 75.785156 Z M 127.015625 75.785156 " fill-opacity="1" fill-rule="nonzero"/></g><g clip-path="url(#cea36c9139)"><path fill="#ffffff" d="M 40.847656 103.25 C 49.414062 103.25 56.925781 98.71875 61.113281 91.921875 L 40.519531 79.566406 L 61.214844 67.148438 C 57.046875 60.261719 49.484375 55.660156 40.847656 55.660156 C 27.707031 55.660156 17.054688 66.3125 17.054688 79.457031 C 17.054688 92.597656 27.707031 103.25 40.847656 103.25 Z M 45.089844 62.050781 C 47.1875 62.050781 48.890625 63.75 48.890625 65.851562 C 48.890625 67.949219 47.1875 69.652344 45.089844 69.652344 C 42.992188 69.652344 41.289062 67.949219 41.289062 65.851562 C 41.289062 63.75 42.992188 62.050781 45.089844 62.050781 Z M 45.089844 62.050781 " fill-opacity="1" fill-rule="nonzero"/></g><path fill="#ffffff" d="M 64.023438 79.457031 C 64.023438 79.726562 63.996094 79.996094 63.941406 80.261719 C 63.890625 80.527344 63.8125 80.785156 63.707031 81.035156 C 63.605469 81.285156 63.476562 81.523438 63.324219 81.75 C 63.175781 81.976562 63.003906 82.183594 62.8125 82.375 C 62.621094 82.570312 62.410156 82.738281 62.1875 82.890625 C 61.960938 83.042969 61.722656 83.167969 61.472656 83.273438 C 61.222656 83.375 60.960938 83.453125 60.695312 83.507812 C 60.429688 83.558594 60.160156 83.585938 59.890625 83.585938 C 59.621094 83.585938 59.351562 83.558594 59.085938 83.507812 C 58.820312 83.453125 58.558594 83.375 58.308594 83.273438 C 58.058594 83.167969 57.820312 83.042969 57.59375 82.890625 C 57.371094 82.738281 57.160156 82.570312 56.96875 82.375 C 56.777344 82.183594 56.605469 81.976562 56.457031 81.75 C 56.304688 81.523438 56.175781 81.285156 56.074219 81.035156 C 55.96875 80.785156 55.890625 80.527344 55.839844 80.261719 C 55.785156 79.996094 55.757812 79.726562 55.757812 79.457031 C 55.757812 79.183594 55.785156 78.914062 55.839844 78.648438 C 55.890625 78.382812 55.96875 78.125 56.074219 77.875 C 56.175781 77.625 56.304688 77.386719 56.457031 77.160156 C 56.605469 76.933594 56.777344 76.726562 56.96875 76.535156 C 57.160156 76.339844 57.371094 76.171875 57.59375 76.019531 C 57.820312 75.867188 58.058594 75.742188 58.308594 75.636719 C 58.558594 75.535156 58.820312 75.457031 59.085938 75.402344 C 59.351562 75.351562 59.621094 75.324219 59.890625 75.324219 C 60.160156 75.324219 60.429688 75.351562 60.695312 75.402344 C 60.960938 75.457031 61.222656 75.535156 61.472656 75.636719 C 61.722656 75.742188 61.960938 75.867188 62.1875 76.019531 C 62.410156 76.171875 62.621094 76.339844 62.8125 76.535156 C 63.003906 76.726562 63.175781 76.933594 63.324219 77.160156 C 63.476562 77.386719 63.605469 77.625 63.707031 77.875 C 63.8125 78.125 63.890625 78.382812 63.941406 78.648438 C 63.996094 78.914062 64.023438 79.183594 64.023438 79.457031 Z M 64.023438 79.457031 " fill-opacity="1" fill-rule="nonzero"/><g clip-path="url(#15b9983921)"><path fill="#ffffff" d="M 77.042969 79.457031 C 77.042969 79.726562 77.015625 79.996094 76.964844 80.261719 C 76.910156 80.527344 76.832031 80.785156 76.730469 81.035156 C 76.625 81.289062 76.496094 81.523438 76.347656 81.75 C 76.195312 81.976562 76.023438 82.183594 75.832031 82.375 C 75.640625 82.570312 75.433594 82.738281 75.207031 82.890625 C 74.980469 83.042969 74.742188 83.167969 74.492188 83.273438 C 74.242188 83.375 73.984375 83.453125 73.71875 83.507812 C 73.453125 83.558594 73.183594 83.585938 72.914062 83.585938 C 72.640625 83.585938 72.371094 83.558594 72.105469 83.507812 C 71.839844 83.453125 71.582031 83.375 71.332031 83.273438 C 71.082031 83.167969 70.84375 83.042969 70.617188 82.890625 C 70.390625 82.738281 70.183594 82.570312 69.992188 82.375 C 69.800781 82.183594 69.628906 81.976562 69.476562 81.75 C 69.328125 81.523438 69.199219 81.289062 69.09375 81.035156 C 68.992188 80.785156 68.914062 80.527344 68.859375 80.261719 C 68.808594 79.996094 68.78125 79.726562 68.78125 79.457031 C 68.78125 79.183594 68.808594 78.914062 68.859375 78.648438 C 68.914062 78.382812 68.992188 78.125 69.09375 77.875 C 69.199219 77.625 69.328125 77.386719 69.476562 77.160156 C 69.628906 76.933594 69.800781 76.726562 69.992188 76.535156 C 70.183594 76.34375 70.390625 76.171875 70.617188 76.019531 C 70.84375 75.871094 71.082031 75.742188 71.332031 75.640625 C 71.582031 75.535156 71.839844 75.457031 72.105469 75.402344 C 72.371094 75.351562 72.640625 75.324219 72.914062 75.324219 C 73.183594 75.324219 73.453125 75.351562 73.71875 75.402344 C 73.984375 75.457031 74.242188 75.535156 74.492188 75.640625 C 74.742188 75.742188 74.980469 75.871094 75.207031 76.019531 C 75.433594 76.171875 75.640625 76.34375 75.832031 76.535156 C 76.023438 76.726562 76.195312 76.933594 76.347656 77.160156 C 76.496094 77.386719 76.625 77.625 76.730469 77.875 C 76.832031 78.125 76.910156 78.382812 76.964844 78.648438 C 77.015625 78.914062 77.042969 79.183594 77.042969 79.457031 Z M 77.042969 79.457031 " fill-opacity="1" fill-rule="nonzero"/></g></svg>