<svg xmlns="http://www.w3.org/2000/svg" xmlns:xlink="http://www.w3.org/1999/xlink" width="200" zoomAndPan="magnify" viewBox="0 0 150 149.999998" height="200" preserveAspectRatio="xMidYMid meet" version="1.0"><defs><clipPath id="c275e16f0f"><path d="M 9.070312 16.410156 L 141.070312 16.410156 L 141.070312 148.410156 L 9.070312 148.410156 Z M 9.070312 16.410156 " clip-rule="nonzero"/></clipPath><clipPath id="05bcadfa57"><path d="M 49.035156 47.242188 L 91 47.242188 L 91 125.992188 L 49.035156 125.992188 Z M 49.035156 47.242188 " clip-rule="nonzero"/></clipPath><clipPath id="051902e6eb"><path d="M 68 67 L 105.285156 67 L 105.285156 99 L 68 99 Z M 68 67 " clip-rule="nonzero"/></clipPath></defs><g clip-path="url(#c275e16f0f)"><path fill="#56aeff" d="M 75.070312 16.410156 C 38.617188 16.410156 9.070312 45.960938 9.070312 82.410156 C 9.070312 118.859375 38.617188 148.410156 75.070312 148.410156 C 111.519531 148.410156 141.070312 118.859375 141.070312 82.410156 C 141.070312 45.960938 111.519531 16.410156 75.070312 16.410156 " fill-opacity="1" fill-rule="nonzero"/></g><g clip-path="url(#05bcadfa57)"><path fill="#ffffff" d="M 87.878906 114.988281 L 51.882812 114.988281 L 51.882812 59.644531 L 87.878906 59.644531 L 87.878906 64.972656 L 90.691406 64.972656 L 90.691406 54.929688 C 90.691406 49.8125 88.105469 47.210938 83.019531 47.210938 L 56.933594 47.210938 C 51.851562 47.210938 49.261719 49.8125 49.261719 54.929688 L 49.261719 118.226562 C 49.261719 123.34375 51.851562 125.945312 56.933594 125.945312 L 83.019531 125.945312 C 88.105469 125.945312 90.691406 123.34375 90.691406 118.226562 L 90.691406 95.554688 L 87.878906 95.554688 Z M 62.957031 51.835938 L 77 51.835938 C 77.875 51.835938 78.585938 52.550781 78.585938 53.429688 C 78.585938 54.3125 77.875 55.027344 77 55.027344 L 62.957031 55.027344 C 62.082031 55.027344 61.367188 54.3125 61.367188 53.429688 C 61.367188 52.550781 62.082031 51.835938 62.957031 51.835938 Z M 62.957031 51.835938 " fill-opacity="1" fill-rule="nonzero"/></g><g clip-path="url(#051902e6eb)"><path fill="#ffffff" d="M 101.265625 67.597656 L 71.945312 67.597656 C 69.808594 67.597656 68.078125 69.339844 68.078125 71.492188 L 68.078125 88.671875 C 68.078125 90.820312 69.808594 92.5625 71.945312 92.5625 L 72.769531 92.5625 L 73.519531 93.628906 L 74.875 95.558594 L 76.453125 97.800781 C 76.710938 98.058594 77.097656 98.085938 77.394531 97.90625 C 77.449219 97.871094 77.507812 97.847656 77.550781 97.800781 L 79.128906 95.558594 L 81.234375 92.5625 L 101.265625 92.5625 C 103.402344 92.5625 105.132812 90.820312 105.132812 88.671875 L 105.132812 71.492188 C 105.132812 69.339844 103.402344 67.597656 101.265625 67.597656 Z M 71.308594 83.808594 C 70.996094 83.316406 70.839844 82.824219 70.839844 82.34375 C 70.839844 82.015625 70.953125 81.726562 71.179688 81.492188 C 71.410156 81.257812 71.703125 81.136719 72.054688 81.136719 C 72.34375 81.136719 72.601562 81.238281 72.804688 81.425781 C 72.984375 81.59375 73.140625 81.835938 73.261719 82.144531 C 73.375 82.429688 73.5 82.675781 73.628906 82.867188 C 73.742188 83.03125 73.910156 83.171875 74.121094 83.28125 C 74.335938 83.394531 74.632812 83.449219 75.007812 83.449219 C 75.523438 83.449219 75.9375 83.332031 76.246094 83.101562 C 76.53125 82.890625 76.667969 82.636719 76.667969 82.332031 C 76.667969 82.09375 76.601562 81.90625 76.464844 81.765625 C 76.300781 81.597656 76.089844 81.46875 75.824219 81.378906 C 75.523438 81.277344 75.109375 81.164062 74.59375 81.042969 C 73.871094 80.875 73.253906 80.671875 72.761719 80.441406 C 72.238281 80.195312 71.816406 79.855469 71.503906 79.429688 C 71.1875 78.992188 71.027344 78.445312 71.027344 77.804688 C 71.027344 77.195312 71.195312 76.648438 71.527344 76.171875 C 71.855469 75.699219 72.335938 75.332031 72.949219 75.085938 C 73.542969 74.84375 74.246094 74.71875 75.035156 74.71875 C 75.667969 74.71875 76.230469 74.800781 76.699219 74.964844 C 77.175781 75.125 77.578125 75.347656 77.902344 75.621094 C 78.222656 75.902344 78.464844 76.199219 78.617188 76.511719 C 78.773438 76.832031 78.851562 77.148438 78.851562 77.457031 C 78.851562 77.777344 78.738281 78.066406 78.519531 78.316406 C 78.078125 78.816406 77.28125 78.816406 76.90625 78.449219 C 76.761719 78.308594 76.613281 78.097656 76.460938 77.804688 C 76.296875 77.464844 76.105469 77.210938 75.898438 77.03125 C 75.710938 76.878906 75.367188 76.796875 74.902344 76.796875 C 74.460938 76.796875 74.105469 76.890625 73.851562 77.074219 C 73.550781 77.289062 73.515625 77.492188 73.515625 77.625 C 73.515625 77.75 73.546875 77.855469 73.613281 77.9375 C 73.691406 78.042969 73.804688 78.136719 73.949219 78.21875 C 74.117188 78.308594 74.285156 78.382812 74.457031 78.433594 C 74.640625 78.492188 74.957031 78.574219 75.390625 78.6875 C 75.949219 78.820312 76.464844 78.964844 76.917969 79.125 C 77.394531 79.292969 77.808594 79.5 78.144531 79.738281 C 78.5 79.992188 78.78125 80.320312 78.980469 80.707031 C 79.179688 81.09375 79.277344 81.570312 79.277344 82.117188 C 79.277344 82.773438 79.109375 83.375 78.769531 83.902344 C 78.429688 84.433594 77.933594 84.847656 77.289062 85.140625 C 76.664062 85.429688 75.914062 85.574219 75.0625 85.574219 C 74.042969 85.574219 73.183594 85.375 72.503906 84.976562 C 72.011719 84.683594 71.609375 84.292969 71.308594 83.808594 Z M 91.289062 84.113281 C 91.289062 84.574219 91.175781 84.933594 90.953125 85.179688 C 90.878906 85.265625 90.785156 85.335938 90.691406 85.394531 C 90.503906 85.507812 90.285156 85.574219 90.039062 85.574219 C 89.683594 85.574219 89.382812 85.441406 89.152344 85.179688 C 88.925781 84.929688 88.8125 84.570312 88.8125 84.113281 L 88.8125 79.957031 L 87.882812 83.667969 C 87.882812 83.679688 87.878906 83.683594 87.875 83.691406 C 87.773438 84.097656 87.691406 84.398438 87.625 84.589844 C 87.542969 84.835938 87.390625 85.058594 87.175781 85.253906 C 86.941406 85.464844 86.625 85.570312 86.238281 85.570312 C 85.945312 85.570312 85.691406 85.503906 85.476562 85.371094 C 85.269531 85.238281 85.105469 85.070312 84.988281 84.867188 C 84.886719 84.683594 84.804688 84.480469 84.75 84.269531 C 84.699219 84.078125 84.644531 83.878906 84.589844 83.671875 L 83.660156 79.953125 L 83.660156 84.113281 C 83.660156 84.578125 83.550781 84.929688 83.324219 85.179688 C 82.882812 85.683594 81.992188 85.699219 81.523438 85.1875 C 81.300781 84.941406 81.183594 84.578125 81.183594 84.113281 L 81.183594 76.3125 C 81.183594 75.765625 81.34375 75.382812 81.664062 75.167969 C 81.941406 74.980469 82.304688 74.886719 82.746094 74.886719 L 83.359375 74.886719 C 83.777344 74.886719 84.082031 74.929688 84.289062 75.011719 C 84.53125 75.109375 84.71875 75.292969 84.835938 75.542969 C 84.921875 75.734375 85.019531 76.03125 85.128906 76.449219 L 86.234375 80.65625 L 87.34375 76.449219 C 87.453125 76.035156 87.546875 75.738281 87.636719 75.542969 C 87.699219 75.414062 87.777344 75.304688 87.875 75.210938 C 87.964844 75.128906 88.066406 75.058594 88.183594 75.011719 C 88.394531 74.929688 88.695312 74.886719 89.109375 74.886719 L 89.726562 74.886719 C 90.113281 74.886719 90.429688 74.972656 90.691406 75.117188 C 90.726562 75.136719 90.777344 75.144531 90.808594 75.167969 C 91.128906 75.382812 91.289062 75.765625 91.289062 76.3125 Z M 101.226562 83.902344 C 100.886719 84.429688 100.390625 84.84375 99.746094 85.140625 C 99.121094 85.425781 98.371094 85.574219 97.519531 85.574219 C 96.5 85.574219 95.640625 85.371094 94.960938 84.976562 C 94.46875 84.683594 94.066406 84.292969 93.761719 83.808594 C 93.453125 83.316406 93.296875 82.824219 93.296875 82.34375 C 93.296875 82.015625 93.410156 81.730469 93.640625 81.496094 C 93.867188 81.257812 94.160156 81.136719 94.511719 81.136719 C 94.800781 81.136719 95.054688 81.234375 95.261719 81.425781 C 95.445312 81.59375 95.597656 81.835938 95.71875 82.148438 C 95.832031 82.433594 95.957031 82.679688 96.085938 82.867188 C 96.203125 83.035156 96.367188 83.171875 96.578125 83.28125 C 96.792969 83.394531 97.09375 83.453125 97.46875 83.453125 C 97.980469 83.453125 98.398438 83.335938 98.707031 83.101562 C 98.988281 82.890625 99.128906 82.636719 99.128906 82.332031 C 99.128906 82.09375 99.058594 81.90625 98.921875 81.765625 C 98.761719 81.601562 98.546875 81.46875 98.28125 81.378906 C 97.976562 81.273438 97.5625 81.164062 97.054688 81.042969 C 96.328125 80.875 95.714844 80.671875 95.222656 80.441406 C 94.699219 80.195312 94.273438 79.855469 93.964844 79.429688 C 93.644531 78.992188 93.484375 78.445312 93.484375 77.804688 C 93.484375 77.195312 93.652344 76.644531 93.984375 76.171875 C 94.3125 75.699219 94.789062 75.335938 95.40625 75.082031 C 96 74.84375 96.703125 74.71875 97.492188 74.71875 C 98.125 74.71875 98.6875 74.800781 99.15625 74.960938 C 99.636719 75.125 100.039062 75.347656 100.359375 75.621094 C 100.679688 75.902344 100.921875 76.199219 101.074219 76.511719 C 101.230469 76.824219 101.308594 77.144531 101.308594 77.457031 C 101.308594 77.773438 101.195312 78.0625 100.976562 78.3125 C 100.535156 78.816406 99.738281 78.8125 99.363281 78.449219 C 99.21875 78.3125 99.074219 78.101562 98.917969 77.804688 C 98.753906 77.464844 98.566406 77.210938 98.355469 77.03125 C 98.167969 76.875 97.824219 76.792969 97.359375 76.792969 C 96.917969 76.792969 96.5625 76.890625 96.308594 77.070312 C 96.011719 77.289062 95.976562 77.492188 95.976562 77.625 C 95.976562 77.75 96.007812 77.851562 96.070312 77.9375 C 96.148438 78.042969 96.261719 78.136719 96.40625 78.214844 C 96.574219 78.308594 96.742188 78.382812 96.910156 78.433594 C 97.101562 78.488281 97.410156 78.574219 97.847656 78.683594 C 98.410156 78.816406 98.925781 78.964844 99.375 79.125 C 99.847656 79.289062 100.261719 79.496094 100.601562 79.738281 C 100.953125 79.988281 101.234375 80.316406 101.4375 80.703125 C 101.636719 81.09375 101.734375 81.566406 101.734375 82.117188 C 101.734375 82.773438 101.5625 83.375 101.226562 83.902344 Z M 101.226562 83.902344 " fill-opacity="1" fill-rule="nonzero"/></g></svg>