<svg xmlns="http://www.w3.org/2000/svg" xmlns:xlink="http://www.w3.org/1999/xlink" width="200" zoomAndPan="magnify" viewBox="0 0 150 149.999998" height="200" preserveAspectRatio="xMidYMid meet" version="1.0"><defs><g/><clipPath id="bfd7423345"><path d="M 9.070312 6.144531 L 141.070312 6.144531 L 141.070312 138.144531 L 9.070312 138.144531 Z M 9.070312 6.144531 " clip-rule="nonzero"/></clipPath></defs><g clip-path="url(#bfd7423345)"><path fill="#56aeff" d="M 75.070312 6.144531 C 38.617188 6.144531 9.070312 35.695312 9.070312 72.144531 C 9.070312 108.597656 38.617188 138.144531 75.070312 138.144531 C 111.519531 138.144531 141.070312 108.597656 141.070312 72.144531 C 141.070312 35.695312 111.519531 6.144531 75.070312 6.144531 " fill-opacity="1" fill-rule="nonzero"/></g><g fill="#ffffff" fill-opacity="1"><g transform="translate(29.991219, 113.230347)"><g><path d="M 4.09375 0.0898438 L 5.589844 0.03125 L 6.140625 0.0625 L 6.84375 0 L 7.484375 -0.246094 L 7.757812 -0.886719 L 7.730469 -1.496094 L 7.757812 -2.167969 L 7.699219 -3.300781 L 7.757812 -3.878906 L 7.730469 -4.582031 L 8.003906 -5.132812 L 8.707031 -5.46875 L 9.378906 -5.527344 L 10.019531 -5.40625 L 13.167969 -5.652344 L 16.066406 -6.8125 L 16.527344 -7.179688 L 16.953125 -7.667969 L 17.351562 -8.066406 L 17.75 -8.523438 L 18.390625 -9.5 L 18.910156 -10.691406 L 19 -11.363281 L 19.183594 -11.851562 L 19.246094 -14.359375 L 19.121094 -14.875 L 19.03125 -15.546875 L 18.664062 -16.679688 L 18.085938 -17.71875 L 17.351562 -18.726562 L 15.976562 -19.917969 L 14.96875 -20.589844 L 13.746094 -20.957031 L 13.226562 -21.167969 L 12.617188 -21.167969 L 12.003906 -21.382812 L 11.089844 -21.414062 L 10.109375 -21.382812 L 9.4375 -21.292969 L 7.574219 -21.324219 L 6.964844 -21.414062 L 5.070312 -21.292969 L 4.398438 -21.324219 L 3.847656 -21.414062 L 3.207031 -21.292969 L 2.566406 -20.957031 L 2.292969 -20.46875 L 2.320312 -16.769531 L 2.199219 -15.546875 L 2.261719 -14.96875 L 2.230469 -7.054688 L 2.292969 -6.476562 L 2.261719 -0.824219 L 2.597656 -0.246094 L 3.542969 0.0625 Z M 8.675781 -10.355469 L 8.066406 -10.722656 L 7.789062 -11.242188 L 7.699219 -13.714844 L 7.757812 -14.359375 L 7.757812 -15.609375 L 8.066406 -16.191406 L 8.707031 -16.496094 L 11.882812 -16.402344 L 12.492188 -16.128906 L 12.984375 -15.792969 L 13.378906 -15.394531 L 13.683594 -14.785156 L 13.777344 -14.234375 L 13.839844 -13.378906 L 13.777344 -12.554688 L 13.5625 -12.003906 L 13.289062 -11.515625 L 12.890625 -11.027344 L 12.402344 -10.660156 L 11.914062 -10.507812 L 10.964844 -10.386719 L 9.410156 -10.417969 Z M 8.675781 -10.355469 "/></g></g></g><g fill="#ffffff" fill-opacity="1"><g transform="translate(50.08896, 113.230347)"><g><path d="M 9.410156 0.0898438 L 10.324219 0.0898438 L 11.273438 -0.03125 L 11.882812 -0.03125 L 12.769531 -0.304688 L 14.019531 -0.519531 L 15.457031 -1.128906 L 17.503906 -2.503906 L 19 -4.429688 L 19.304688 -5.039062 L 19.671875 -5.527344 L 20.160156 -6.71875 L 20.3125 -7.300781 L 20.4375 -7.941406 L 20.621094 -8.460938 L 20.710938 -9.074219 L 20.710938 -9.714844 L 20.804688 -10.691406 L 20.773438 -11.578125 L 20.34375 -13.992188 L 19.949219 -15.152344 L 19.703125 -15.730469 L 18.664062 -17.351562 L 17.046875 -19.152344 L 15.488281 -20.191406 L 14.90625 -20.527344 L 14.296875 -20.648438 L 13.777344 -20.894531 L 13.136719 -21.046875 L 11.332031 -21.324219 L 4.367188 -21.382812 L 3.820312 -21.292969 L 3.207031 -21.324219 L 2.535156 -21.046875 L 2.261719 -20.40625 L 2.230469 -3.328125 L 2.292969 -2.75 L 2.292969 -1.191406 L 2.597656 -0.246094 L 3.207031 0.0625 L 3.820312 0 L 7.546875 0.0625 L 8.15625 -0.03125 Z M 9.316406 -4.917969 L 8.738281 -4.980469 L 8.035156 -5.316406 L 7.789062 -5.894531 L 7.757812 -6.414062 L 7.789062 -7.667969 L 7.667969 -9.164062 L 7.789062 -10.691406 L 7.730469 -14.90625 L 7.789062 -15.425781 L 8.09375 -16.128906 L 9.074219 -16.34375 L 10.355469 -16.375 L 11.242188 -16.28125 L 12.433594 -15.945312 L 12.984375 -15.671875 L 13.441406 -15.335938 L 13.898438 -14.90625 L 14.359375 -14.359375 L 14.664062 -13.839844 L 14.9375 -13.289062 L 15.425781 -10.601562 L 15.121094 -8.460938 L 14.601562 -7.332031 L 13.472656 -6.046875 L 12.433594 -5.375 L 11.546875 -5.101562 L 10.234375 -4.949219 Z M 9.316406 -4.917969 "/></g></g></g><g fill="#ffffff" fill-opacity="1"><g transform="translate(72.294218, 113.230347)"><g><path d="M 18.023438 0.0625 L 19.183594 -0.03125 L 19.765625 0.03125 L 20.710938 0 L 21.566406 -0.152344 L 21.660156 -0.886719 L 21.445312 -1.589844 L 20.984375 -2.71875 L 20.160156 -4.308594 L 19.734375 -5.4375 L 19.121094 -6.539062 L 17.960938 -9.316406 L 17.65625 -9.773438 L 17.351562 -10.355469 L 17.167969 -11.027344 L 16.894531 -11.484375 L 16.710938 -11.976562 L 16.066406 -13.105469 L 15.855469 -13.746094 L 13.839844 -17.992188 L 13.65625 -18.605469 L 13.320312 -19.152344 L 13.136719 -19.703125 L 12.554688 -20.773438 L 12.035156 -21.324219 L 11.027344 -21.628906 L 10.050781 -21.292969 L 9.5 -20.773438 L 9.226562 -20.253906 L 9.011719 -19.640625 L 8.738281 -19.214844 L 7.515625 -16.402344 L 7.179688 -15.945312 L 7.027344 -15.335938 L 6.691406 -14.753906 L 6.507812 -14.203125 L 3.390625 -7.667969 L 3.207031 -6.996094 L 2.902344 -6.539062 L 2.6875 -5.925781 L 2.136719 -4.949219 L 1.679688 -3.726562 L 1.34375 -3.300781 L 1.191406 -2.75 L 0.582031 -1.527344 L 0.398438 -0.917969 L 0.550781 -0.152344 L 1.160156 0.03125 L 2.351562 -0.03125 L 2.964844 0.03125 L 4.671875 -0.03125 L 5.375 -0.246094 L 5.957031 -0.792969 L 6.507812 -1.800781 L 7.085938 -2.382812 L 7.730469 -2.71875 L 8.308594 -2.628906 L 9.59375 -2.75 L 10.140625 -2.65625 L 13.136719 -2.6875 L 13.683594 -2.628906 L 14.359375 -2.71875 L 15.03125 -2.382812 L 15.609375 -1.894531 L 15.886719 -1.3125 L 16.066406 -0.765625 L 16.679688 -0.304688 L 17.382812 0 Z M 11.089844 -7.546875 L 10.476562 -7.667969 L 9.773438 -7.605469 L 9.285156 -7.820312 L 9.257812 -8.402344 L 10.691406 -11.699219 L 11.027344 -11.976562 L 11.457031 -11.730469 L 12.890625 -8.371094 L 12.769531 -7.820312 L 12.3125 -7.574219 Z M 11.089844 -7.546875 "/></g></g></g><g fill="#ffffff" fill-opacity="1"><g transform="translate(94.468931, 113.230347)"><g><path d="M 3.175781 0.0898438 L 3.789062 0 L 4.980469 0.0625 L 5.652344 -0.03125 L 6.628906 0.03125 L 7.484375 -0.335938 L 7.851562 -0.886719 L 7.757812 -4.09375 L 7.851562 -5.039062 L 7.820312 -5.683594 L 7.882812 -6.78125 L 7.820312 -7.453125 L 7.820312 -8.644531 L 8.09375 -8.921875 L 8.402344 -8.796875 L 8.890625 -8.402344 L 9.257812 -7.941406 L 10.507812 -6.691406 L 10.90625 -6.203125 L 11.730469 -5.40625 L 12.371094 -4.949219 L 13.042969 -4.917969 L 13.65625 -5.375 L 14.082031 -5.835938 L 14.449219 -6.203125 L 15.304688 -7.210938 L 15.730469 -7.515625 L 16.984375 -8.796875 L 17.382812 -8.980469 L 17.625 -8.523438 L 17.566406 -6.84375 L 17.65625 -5.621094 L 17.59375 -4.429688 L 17.65625 -3.300781 L 17.59375 -2.75 L 17.65625 -1.375 L 17.65625 -0.917969 L 17.902344 -0.214844 L 18.542969 -0.03125 L 22.238281 0.0898438 L 22.878906 -0.246094 L 23.246094 -1.128906 L 23.15625 -2.71875 L 23.214844 -3.328125 L 23.15625 -12.492188 L 23.214844 -13.167969 L 23.1875 -16.191406 L 23.214844 -16.769531 L 23.15625 -18.085938 L 23.1875 -18.605469 L 23.15625 -19.855469 L 23.214844 -20.4375 L 22.851562 -21.078125 L 22.207031 -21.414062 L 21.324219 -21.140625 L 20.679688 -20.742188 L 19.398438 -19.398438 L 19 -18.910156 L 18.632812 -18.574219 L 18.207031 -18.023438 L 15.519531 -15.273438 L 15.121094 -14.753906 L 13.257812 -12.859375 L 12.707031 -12.492188 L 12.066406 -12.738281 L 11.699219 -13.257812 L 11.273438 -13.683594 L 10.722656 -14.386719 L 10.050781 -15 L 7.269531 -18.085938 L 6.84375 -18.449219 L 6.046875 -19.398438 L 5.558594 -19.824219 L 4.765625 -20.648438 L 4.0625 -21.167969 L 3.207031 -21.414062 L 2.535156 -21.109375 L 2.199219 -20.46875 L 2.292969 -18.605469 L 2.199219 -17.414062 L 2.261719 -16.863281 L 2.230469 -11.976562 L 2.292969 -11.363281 L 2.199219 -8.277344 L 2.261719 -7.699219 L 2.230469 -0.945312 L 2.566406 -0.304688 Z M 3.175781 0.0898438 "/></g></g></g><path fill="#ffffff" d="M 75 64.332031 C 82.96875 64.332031 89.449219 57.851562 89.449219 49.882812 C 89.449219 39.519531 79.203125 28.347656 76.304688 26.113281 C 75.535156 25.519531 74.464844 25.519531 73.695312 26.113281 C 70.714844 28.414062 60.265625 39.847656 60.558594 50.320312 C 60.773438 58.179688 67.121094 64.332031 75 64.332031 Z M 62.554688 50.261719 C 62.289062 40.699219 72.226562 29.773438 74.917969 27.695312 C 74.941406 27.675781 74.972656 27.667969 75 27.667969 C 75.027344 27.667969 75.058594 27.675781 75.082031 27.695312 C 77.699219 29.714844 87.449219 40.402344 87.449219 49.882812 C 87.449219 56.746094 81.867188 62.332031 75 62.332031 C 68.210938 62.332031 62.742188 57.03125 62.554688 50.261719 Z M 62.554688 50.261719 " fill-opacity="1" fill-rule="nonzero"/><path fill="#ffffff" d="M 75 59.632812 C 80.375 59.628906 84.746094 55.257812 84.746094 49.882812 C 84.746094 49.332031 84.300781 48.882812 83.746094 48.882812 C 83.195312 48.882812 82.746094 49.332031 82.746094 49.882812 C 82.746094 54.15625 79.273438 57.628906 75 57.632812 C 74.449219 57.632812 74 58.078125 74 58.632812 C 74 59.183594 74.449219 59.632812 75 59.632812 Z M 75 59.632812 " fill-opacity="1" fill-rule="nonzero"/><path fill="#ffffff" d="M 89.3125 69.070312 C 84.996094 71.640625 80.046875 73 75 73 C 59.5625 73 47 60.4375 47 45 C 47 38.988281 48.875 33.261719 52.425781 28.433594 C 52.753906 27.988281 52.65625 27.363281 52.210938 27.035156 C 51.765625 26.707031 51.140625 26.800781 50.8125 27.246094 C 47.011719 32.421875 45 38.558594 45 45 C 45 61.542969 58.457031 75 75 75 C 80.410156 75 85.710938 73.542969 90.335938 70.789062 C 90.808594 70.507812 90.964844 69.894531 90.683594 69.417969 C 90.398438 68.945312 89.785156 68.789062 89.3125 69.070312 Z M 89.3125 69.070312 " fill-opacity="1" fill-rule="nonzero"/><path fill="#ffffff" d="M 75 15 C 68.003906 15 61.191406 17.460938 55.820312 21.929688 C 55.398438 22.285156 55.339844 22.914062 55.691406 23.339844 C 56.046875 23.761719 56.675781 23.820312 57.101562 23.464844 C 62.113281 19.296875 68.46875 17 75 17 C 90.4375 17 103 29.5625 103 45 C 103 52.421875 100.125 59.414062 94.90625 64.691406 C 94.515625 65.085938 94.519531 65.71875 94.914062 66.105469 C 95.109375 66.296875 95.363281 66.394531 95.617188 66.394531 C 95.875 66.394531 96.132812 66.296875 96.328125 66.097656 C 101.921875 60.445312 105 52.953125 105 45 C 105 28.457031 91.542969 15 75 15 Z M 75 15 " fill-opacity="1" fill-rule="nonzero"/></svg>