<svg xmlns="http://www.w3.org/2000/svg" xmlns:xlink="http://www.w3.org/1999/xlink" width="200" zoomAndPan="magnify" viewBox="0 0 150 149.999998" height="200" preserveAspectRatio="xMidYMid meet" version="1.0"><defs><g/><clipPath id="2c44ffc145"><path d="M 9.070312 6.144531 L 141.070312 6.144531 L 141.070312 138.144531 L 9.070312 138.144531 Z M 9.070312 6.144531 " clip-rule="nonzero"/></clipPath><clipPath id="540f10ecdf"><path d="M 48.238281 9.238281 L 101.488281 9.238281 L 101.488281 87 L 48.238281 87 Z M 48.238281 9.238281 " clip-rule="nonzero"/></clipPath></defs><g clip-path="url(#2c44ffc145)"><path fill="#56aeff" d="M 75.070312 6.144531 C 38.617188 6.144531 9.070312 35.695312 9.070312 72.144531 C 9.070312 108.597656 38.617188 138.144531 75.070312 138.144531 C 111.519531 138.144531 141.070312 108.597656 141.070312 72.144531 C 141.070312 35.695312 111.519531 6.144531 75.070312 6.144531 " fill-opacity="1" fill-rule="nonzero"/></g><g clip-path="url(#540f10ecdf)"><path fill="#f2f2f2" d="M 67.242188 86.640625 C 67.261719 86.652344 67.28125 86.660156 67.296875 86.671875 C 67.296875 86.671875 53.535156 87.851562 49.394531 69.730469 C 48.359375 65.199219 48.234375 60.523438 48.898438 55.925781 C 50.058594 47.871094 55.015625 42.53125 55.015625 42.53125 C 53.304688 57.042969 68.988281 61.792969 68.988281 61.792969 C 68.519531 61.242188 68.261719 60.9375 68 60.636719 C 61.847656 53.617188 57.550781 45.75 56.53125 36.496094 C 55.632812 28.382812 57.34375 20.863281 62.828125 14.445312 C 64.398438 12.605469 66.339844 11.058594 68.109375 9.378906 C 56.542969 26.382812 83.667969 41.691406 83.667969 41.691406 C 83.042969 40.945312 80.292969 36.242188 80.121094 35.949219 C 78.839844 33.433594 77.835938 30.8125 77.414062 27.988281 C 76.996094 25.164062 76.972656 22.347656 78.714844 19.570312 C 78.648438 23.929688 79.074219 25.230469 81.71875 28.625 C 83.273438 30.621094 84.929688 32.550781 86.453125 34.570312 C 86.683594 34.878906 86.90625 35.1875 87.128906 35.496094 C 97.910156 51.710938 92.535156 65.144531 92.535156 65.144531 C 97.753906 58.167969 99.496094 51.691406 99.496094 51.691406 C 100.789062 55.371094 101.367188 58.941406 101.410156 62.597656 C 101.488281 68.910156 100.113281 74.808594 96.003906 79.882812 C 93.519531 82.953125 90.347656 85.070312 86.078125 86.179688 C 91.101562 80.738281 95.128906 75.1875 94.824219 67.738281 C 93.359375 69.289062 90.417969 71.738281 87.777344 73.398438 C 86.652344 74.109375 85.148438 73.417969 85.027344 72.125 C 83.917969 60.304688 80.453125 50.332031 69.550781 43.929688 C 69.796875 44.820312 69.917969 45.285156 70.058594 45.746094 C 71.007812 48.90625 72.074219 52.039062 72.882812 55.230469 C 73.949219 59.457031 74.8125 63.738281 73.925781 68.121094 C 73.320312 71.113281 71.609375 72.453125 68.46875 72.625 C 64.738281 72.832031 61.574219 71.605469 58.820312 69.253906 C 58.339844 68.84375 57.863281 68.429688 57.199219 67.851562 C 59.226562 81.769531 66.570312 86.257812 67.242188 86.640625 Z M 67.242188 86.640625 " fill-opacity="1" fill-rule="nonzero"/></g><g fill="#ffffff" fill-opacity="1"><g transform="translate(41.734915, 113.230304)"><g><path d="M 4.09375 0.0898438 L 5.589844 0.03125 L 6.140625 0.0625 L 6.84375 0 L 7.484375 -0.246094 L 7.757812 -0.886719 L 7.730469 -1.496094 L 7.757812 -2.167969 L 7.699219 -3.300781 L 7.757812 -3.878906 L 7.730469 -4.582031 L 8.003906 -5.132812 L 8.707031 -5.46875 L 9.378906 -5.527344 L 10.019531 -5.40625 L 13.167969 -5.652344 L 16.066406 -6.8125 L 16.527344 -7.179688 L 16.953125 -7.667969 L 17.351562 -8.066406 L 17.75 -8.523438 L 18.390625 -9.5 L 18.910156 -10.691406 L 19 -11.363281 L 19.183594 -11.851562 L 19.246094 -14.359375 L 19.121094 -14.875 L 19.03125 -15.546875 L 18.664062 -16.679688 L 18.085938 -17.71875 L 17.351562 -18.726562 L 15.976562 -19.917969 L 14.96875 -20.589844 L 13.746094 -20.957031 L 13.226562 -21.167969 L 12.617188 -21.167969 L 12.003906 -21.382812 L 11.089844 -21.414062 L 10.109375 -21.382812 L 9.4375 -21.292969 L 7.574219 -21.324219 L 6.964844 -21.414062 L 5.070312 -21.292969 L 4.398438 -21.324219 L 3.847656 -21.414062 L 3.207031 -21.292969 L 2.566406 -20.957031 L 2.292969 -20.46875 L 2.320312 -16.769531 L 2.199219 -15.546875 L 2.261719 -14.96875 L 2.230469 -7.054688 L 2.292969 -6.476562 L 2.261719 -0.824219 L 2.597656 -0.246094 L 3.542969 0.0625 Z M 8.675781 -10.355469 L 8.066406 -10.722656 L 7.789062 -11.242188 L 7.699219 -13.714844 L 7.757812 -14.359375 L 7.757812 -15.609375 L 8.066406 -16.191406 L 8.707031 -16.496094 L 11.882812 -16.402344 L 12.492188 -16.128906 L 12.984375 -15.792969 L 13.378906 -15.394531 L 13.683594 -14.785156 L 13.777344 -14.234375 L 13.839844 -13.378906 L 13.777344 -12.554688 L 13.5625 -12.003906 L 13.289062 -11.515625 L 12.890625 -11.027344 L 12.402344 -10.660156 L 11.914062 -10.507812 L 10.964844 -10.386719 L 9.410156 -10.417969 Z M 8.675781 -10.355469 "/></g></g></g><g fill="#ffffff" fill-opacity="1"><g transform="translate(61.832656, 113.230304)"><g><path d="M 10.601562 0.304688 L 13.65625 0.304688 L 15.945312 -0.246094 L 18.113281 -1.34375 L 19.0625 -2.078125 L 19.519531 -2.566406 L 19.976562 -2.933594 L 20.34375 -3.359375 L 20.648438 -3.878906 L 20.925781 -4.429688 L 21.292969 -4.855469 L 21.902344 -6.660156 L 22.148438 -7.820312 L 22.175781 -8.339844 L 22.300781 -8.890625 L 22.300781 -9.5 L 22.359375 -10.082031 L 22.300781 -11.242188 L 21.996094 -11.761719 L 21.414062 -12.066406 L 20.773438 -12.097656 L 20.132812 -12.1875 L 16.007812 -12.097656 L 14.175781 -12.21875 L 13.011719 -12.128906 L 12.402344 -11.820312 L 12.128906 -11.242188 L 12.128906 -8.339844 L 12.402344 -7.851562 L 12.953125 -7.515625 L 13.839844 -7.453125 L 15.367188 -7.574219 L 15.914062 -7.484375 L 16.375 -7.269531 L 16.464844 -6.75 L 16.160156 -6.230469 L 15.703125 -5.710938 L 15.273438 -5.375 L 14.265625 -4.980469 L 13.074219 -4.703125 L 12.28125 -4.671875 L 10.722656 -4.855469 L 9.074219 -5.527344 L 8.15625 -6.382812 L 7.820312 -6.8125 L 7.238281 -7.910156 L 6.996094 -8.796875 L 6.84375 -9.773438 L 6.8125 -11.546875 L 7.027344 -12.738281 L 7.515625 -13.839844 L 8.460938 -15.273438 L 9.53125 -16.039062 L 10.050781 -16.3125 L 10.628906 -16.375 L 11.148438 -16.617188 L 13.011719 -16.679688 L 14.144531 -16.375 L 14.722656 -16.128906 L 15.304688 -15.730469 L 15.671875 -15.335938 L 16.066406 -14.816406 L 16.710938 -14.296875 L 17.441406 -14.082031 L 18.390625 -14.050781 L 19.304688 -14.175781 L 20.773438 -14.082031 L 21.535156 -14.417969 L 21.71875 -14.9375 L 21.292969 -16.191406 L 21.015625 -16.738281 L 19.796875 -18.511719 L 19.121094 -19.0625 L 18.632812 -19.519531 L 18.175781 -19.886719 L 16.039062 -21.015625 L 15.394531 -21.140625 L 13.960938 -21.535156 L 11.121094 -21.660156 L 10.507812 -21.628906 L 9.988281 -21.445312 L 9.410156 -21.414062 L 7.054688 -20.558594 L 5.375 -19.519531 L 4.03125 -18.328125 L 3.636719 -17.839844 L 3.175781 -17.382812 L 2.839844 -16.921875 L 1.710938 -14.632812 L 1.160156 -11.609375 L 1.128906 -10.628906 L 1.28125 -8.492188 L 2.136719 -5.621094 L 2.6875 -4.582031 L 3.390625 -3.542969 L 4.613281 -2.261719 L 5.621094 -1.558594 L 7.730469 -0.335938 L 8.246094 -0.183594 L 9.988281 0.121094 Z M 10.601562 0.304688 "/></g></g></g><g fill="#ffffff" fill-opacity="1"><g transform="translate(85.229118, 113.230304)"><g><path d="M 18.023438 -0.519531 L 18.847656 -0.03125 L 19.703125 0.0625 L 20.375 -0.152344 L 20.679688 -0.765625 L 20.742188 -11.914062 L 20.648438 -12.433594 L 20.648438 -15.457031 L 20.742188 -16.191406 L 20.648438 -20.4375 L 20.34375 -21.046875 L 19.734375 -21.382812 L 15.945312 -21.351562 L 15.367188 -21.015625 L 15.03125 -20.375 L 15 -19.734375 L 15.089844 -19.246094 L 15 -17.960938 L 15.058594 -17.289062 L 15 -11.820312 L 14.816406 -11.300781 L 14.359375 -11.515625 L 12.1875 -13.683594 L 11.332031 -14.359375 L 5.316406 -20.4375 L 4.855469 -20.804688 L 4.15625 -21.167969 L 3.238281 -21.382812 L 2.535156 -21.078125 L 2.261719 -20.496094 L 2.261719 -11.242188 L 2.230469 -10.722656 L 2.292969 -9.46875 L 2.199219 -8.949219 L 2.261719 -3.941406 L 2.199219 -3.359375 L 2.261719 -0.792969 L 2.535156 -0.214844 L 3.175781 0 L 4.429688 0.0625 L 5.101562 0 L 6.292969 0.0898438 L 6.933594 0.0625 L 7.546875 -0.246094 L 7.851562 -1.191406 L 7.882812 -8.921875 L 7.941406 -9.53125 L 8.15625 -10.050781 L 8.554688 -9.898438 L 8.949219 -9.378906 L 11.121094 -7.300781 L 11.515625 -6.84375 L 12.035156 -6.507812 L 16.769531 -1.800781 L 17.566406 -0.917969 Z M 18.023438 -0.519531 "/></g></g></g></svg>