<svg xmlns="http://www.w3.org/2000/svg" xmlns:xlink="http://www.w3.org/1999/xlink" width="200" zoomAndPan="magnify" viewBox="0 0 150 149.999998" height="200" preserveAspectRatio="xMidYMid meet" version="1.0"><defs><clipPath id="f8d5a45bcf"><path d="M 9.070312 16.410156 L 141.070312 16.410156 L 141.070312 148.410156 L 9.070312 148.410156 Z M 9.070312 16.410156 " clip-rule="nonzero"/></clipPath><clipPath id="5b146d457e"><path d="M 20.210938 45 L 49 45 L 49 93 L 20.210938 93 Z M 20.210938 45 " clip-rule="nonzero"/></clipPath><clipPath id="e2f517963f"><path d="M 44 48 L 71.960938 48 L 71.960938 97 L 44 97 Z M 44 48 " clip-rule="nonzero"/></clipPath><clipPath id="ad06635273"><path d="M 28 40.8125 L 64 40.8125 L 64 100.8125 L 28 100.8125 Z M 28 40.8125 " clip-rule="nonzero"/></clipPath><clipPath id="9e4ce21833"><path d="M 77 52 L 128 52 L 128 100.8125 L 77 100.8125 Z M 77 52 " clip-rule="nonzero"/></clipPath><clipPath id="c368925b80"><path d="M 115 44.5625 L 118 44.5625 L 118 51 L 115 51 Z M 115 44.5625 " clip-rule="nonzero"/></clipPath><clipPath id="dc82cd93ea"><path d="M 75 44.5625 L 96 44.5625 L 96 66 L 75 66 Z M 75 44.5625 " clip-rule="nonzero"/></clipPath></defs><g clip-path="url(#f8d5a45bcf)"><path fill="#56aeff" d="M 75.070312 16.410156 C 38.617188 16.410156 9.070312 45.960938 9.070312 82.410156 C 9.070312 118.859375 38.617188 148.410156 75.070312 148.410156 C 111.519531 148.410156 141.070312 118.859375 141.070312 82.410156 C 141.070312 45.960938 111.519531 16.410156 75.070312 16.410156 " fill-opacity="1" fill-rule="nonzero"/></g><g clip-path="url(#5b146d457e)"><path fill="#ffffff" d="M 24.53125 70.8125 C 24.53125 59.429688 33.511719 50.121094 44.792969 49.445312 L 48.0625 45.195312 C 47.410156 45.144531 46.753906 45.097656 46.085938 45.097656 C 31.800781 45.097656 20.222656 56.609375 20.222656 70.8125 C 20.222656 80.21875 25.320312 88.421875 32.902344 92.902344 L 34.027344 88.558594 C 28.300781 84.703125 24.53125 78.183594 24.53125 70.8125 Z M 24.53125 70.8125 " fill-opacity="1" fill-rule="nonzero"/></g><g clip-path="url(#e2f517963f)"><path fill="#ffffff" d="M 59.179688 48.660156 L 57.996094 52.964844 C 63.804688 56.8125 67.644531 63.367188 67.644531 70.8125 C 67.644531 82.1875 58.664062 91.503906 47.378906 92.171875 L 44.109375 96.425781 C 44.765625 96.476562 45.417969 96.523438 46.085938 96.523438 C 60.371094 96.523438 71.953125 85.011719 71.953125 70.8125 C 71.953125 61.363281 66.816406 53.132812 59.179688 48.660156 Z M 59.179688 48.660156 " fill-opacity="1" fill-rule="nonzero"/></g><g clip-path="url(#ad06635273)"><path fill="#ffffff" d="M 63.332031 64.382812 L 50.398438 64.382812 L 51.667969 59.757812 L 54.089844 50.929688 L 55.226562 46.777344 L 56.867188 40.8125 L 52.859375 46.019531 L 49.988281 49.75 L 42.816406 59.074219 L 28.84375 77.238281 L 41.777344 77.238281 L 40.515625 81.835938 L 38.085938 90.691406 L 36.949219 94.84375 L 35.308594 100.8125 L 39.316406 95.601562 L 42.1875 91.871094 L 49.449219 82.425781 Z M 63.332031 64.382812 " fill-opacity="1" fill-rule="nonzero"/></g><path fill="#ffffff" d="M 89.0625 54.875 C 89.0625 55.132812 88.972656 55.351562 88.789062 55.535156 C 88.605469 55.71875 88.382812 55.8125 88.125 55.8125 C 87.867188 55.8125 87.644531 55.71875 87.460938 55.535156 C 87.277344 55.351562 87.1875 55.132812 87.1875 54.875 C 87.1875 54.613281 87.277344 54.394531 87.460938 54.210938 C 87.644531 54.027344 87.867188 53.9375 88.125 53.9375 C 88.382812 53.9375 88.605469 54.027344 88.789062 54.210938 C 88.972656 54.394531 89.0625 54.613281 89.0625 54.875 Z M 89.0625 54.875 " fill-opacity="1" fill-rule="nonzero"/><path fill="#ffffff" d="M 83.4375 54.875 C 83.4375 55.132812 83.347656 55.351562 83.164062 55.535156 C 82.980469 55.71875 82.757812 55.8125 82.5 55.8125 C 82.242188 55.8125 82.019531 55.71875 81.835938 55.535156 C 81.652344 55.351562 81.5625 55.132812 81.5625 54.875 C 81.5625 54.613281 81.652344 54.394531 81.835938 54.210938 C 82.019531 54.027344 82.242188 53.9375 82.5 53.9375 C 82.757812 53.9375 82.980469 54.027344 83.164062 54.210938 C 83.347656 54.394531 83.4375 54.613281 83.4375 54.875 Z M 83.4375 54.875 " fill-opacity="1" fill-rule="nonzero"/><g clip-path="url(#9e4ce21833)"><path fill="#ffffff" d="M 81.5625 68 C 81.046875 68 80.625 68.421875 80.625 68.9375 L 80.625 73.625 L 78.75 73.625 C 78.234375 73.625 77.8125 74.046875 77.8125 74.5625 L 77.8125 80.65625 C 77.8125 84.03125 80.53125 86.75 83.90625 86.75 L 83.90625 98 C 83.90625 99.546875 85.171875 100.8125 86.765625 100.8125 L 114.84375 100.8125 C 116.390625 100.8125 117.703125 99.546875 117.703125 98 L 117.703125 86.140625 C 119.015625 85.8125 120.046875 84.78125 120.421875 83.46875 L 121.40625 83.46875 C 122.953125 83.46875 124.21875 82.203125 124.21875 80.65625 C 124.21875 80.234375 124.125 79.8125 123.9375 79.484375 C 124.921875 79.0625 125.625 78.078125 125.625 76.90625 C 125.625 75.40625 124.453125 74.234375 123.046875 74.09375 C 123.234375 72.40625 123.9375 70.765625 125.109375 69.359375 C 126.65625 67.484375 127.546875 65.09375 127.546875 62.65625 C 127.546875 59.75 126.375 57.03125 124.265625 55.015625 C 122.109375 52.953125 119.203125 51.875 116.203125 52.0625 C 110.578125 52.390625 106.078125 56.890625 105.9375 62.421875 C 105.84375 65.140625 106.828125 67.71875 108.65625 69.734375 C 109.734375 70.90625 110.4375 72.453125 110.671875 74.09375 L 110.625 74.09375 C 109.078125 74.09375 107.8125 75.359375 107.8125 76.90625 C 107.8125 78.03125 108.515625 79.015625 109.5 79.484375 C 109.3125 79.859375 109.21875 80.234375 109.21875 80.65625 C 109.21875 82.203125 110.484375 83.46875 112.03125 83.46875 L 113.109375 83.46875 C 113.4375 84.78125 114.515625 85.8125 115.828125 86.140625 L 115.828125 98 C 115.828125 98.515625 115.40625 98.9375 114.84375 98.9375 L 86.765625 98.9375 C 86.25 98.9375 85.78125 98.515625 85.78125 98 L 85.78125 86.75 C 89.15625 86.75 91.875 84.03125 91.875 80.65625 L 91.875 74.5625 C 91.875 74.046875 91.453125 73.625 90.9375 73.625 L 89.0625 73.625 L 89.0625 68.9375 C 89.0625 68.421875 88.640625 68 88.125 68 C 87.609375 68 87.1875 68.421875 87.1875 68.9375 L 87.1875 73.625 L 82.5 73.625 L 82.5 68.9375 C 82.5 68.421875 82.078125 68 81.5625 68 Z M 114.84375 66.3125 C 114.515625 66.3125 114.1875 66.125 114 65.84375 C 113.859375 65.5625 113.859375 65.1875 114.046875 64.90625 L 117.421875 59.5625 C 117.703125 59.140625 118.265625 59 118.734375 59.28125 C 119.15625 59.5625 119.296875 60.125 119.015625 60.59375 L 116.53125 64.484375 L 118.59375 64.484375 C 118.96875 64.484375 119.296875 64.671875 119.4375 65 C 119.578125 65.328125 119.578125 65.703125 119.34375 65.984375 L 115.59375 70.953125 C 115.40625 71.1875 115.125 71.328125 114.84375 71.328125 C 114.65625 71.328125 114.46875 71.28125 114.28125 71.140625 C 113.859375 70.8125 113.8125 70.25 114.09375 69.828125 L 116.71875 66.359375 L 114.84375 66.359375 Z M 109.6875 76.90625 C 109.6875 76.390625 110.109375 75.96875 110.625 75.96875 L 122.8125 75.96875 C 123.328125 75.96875 123.75 76.390625 123.75 76.90625 C 123.75 77.421875 123.328125 77.84375 122.8125 77.84375 L 110.625 77.84375 C 110.109375 77.84375 109.6875 77.421875 109.6875 76.90625 Z M 112.03125 81.59375 C 111.515625 81.59375 111.09375 81.171875 111.09375 80.65625 C 111.09375 80.140625 111.515625 79.71875 112.03125 79.71875 L 121.40625 79.71875 C 121.921875 79.71875 122.34375 80.140625 122.34375 80.65625 C 122.34375 81.171875 121.921875 81.59375 121.40625 81.59375 Z M 112.03125 81.59375 " fill-opacity="1" fill-rule="nonzero"/></g><g clip-path="url(#c368925b80)"><path fill="#ffffff" d="M 117.65625 49.25 L 117.65625 45.5 C 117.65625 44.984375 117.234375 44.5625 116.71875 44.5625 C 116.203125 44.5625 115.78125 44.984375 115.78125 45.5 L 115.78125 49.25 C 115.78125 49.765625 116.203125 50.1875 116.71875 50.1875 C 117.234375 50.1875 117.65625 49.765625 117.65625 49.25 Z M 117.65625 49.25 " fill-opacity="1" fill-rule="nonzero"/></g><path fill="#ffffff" d="M 130.5 50 C 130.125 49.625 129.5625 49.625 129.1875 50 L 126.375 52.8125 C 126 53.1875 126 53.75 126.375 54.125 C 126.5625 54.3125 126.796875 54.40625 127.03125 54.40625 C 127.265625 54.40625 127.5 54.3125 127.6875 54.125 L 130.5 51.3125 C 130.875 50.9375 130.875 50.375 130.5 50 Z M 130.5 50 " fill-opacity="1" fill-rule="nonzero"/><path fill="#ffffff" d="M 129.09375 70.15625 C 128.71875 69.78125 128.15625 69.78125 127.78125 70.15625 C 127.40625 70.53125 127.40625 71.09375 127.78125 71.46875 L 130.59375 74.28125 C 130.78125 74.46875 131.015625 74.5625 131.25 74.5625 C 131.484375 74.5625 131.71875 74.46875 131.90625 74.28125 C 132.28125 73.90625 132.28125 73.34375 131.90625 72.96875 Z M 129.09375 70.15625 " fill-opacity="1" fill-rule="nonzero"/><path fill="#ffffff" d="M 134.0625 61.4375 L 130.3125 61.4375 C 129.796875 61.4375 129.375 61.859375 129.375 62.375 C 129.375 62.890625 129.796875 63.3125 130.3125 63.3125 L 134.0625 63.3125 C 134.578125 63.3125 135 62.890625 135 62.375 C 135 61.859375 134.578125 61.4375 134.0625 61.4375 Z M 134.0625 61.4375 " fill-opacity="1" fill-rule="nonzero"/><path fill="#ffffff" d="M 107.0625 54.125 C 107.4375 53.75 107.4375 53.1875 107.0625 52.8125 L 104.25 50 C 103.875 49.625 103.3125 49.625 102.9375 50 C 102.5625 50.375 102.5625 50.9375 102.9375 51.3125 L 105.75 54.125 C 105.9375 54.3125 106.171875 54.40625 106.40625 54.40625 C 106.640625 54.40625 106.875 54.3125 107.0625 54.125 Z M 107.0625 54.125 " fill-opacity="1" fill-rule="nonzero"/><path fill="#ffffff" d="M 104.34375 70.15625 L 101.53125 72.96875 C 101.15625 73.34375 101.15625 73.90625 101.53125 74.28125 C 101.71875 74.46875 101.953125 74.5625 102.1875 74.5625 C 102.421875 74.5625 102.65625 74.46875 102.84375 74.28125 L 105.65625 71.46875 C 106.03125 71.09375 106.03125 70.53125 105.65625 70.15625 C 105.28125 69.78125 104.71875 69.78125 104.34375 70.15625 Z M 104.34375 70.15625 " fill-opacity="1" fill-rule="nonzero"/><path fill="#ffffff" d="M 98.4375 62.375 C 98.4375 62.890625 98.859375 63.3125 99.375 63.3125 L 103.125 63.3125 C 103.640625 63.3125 104.0625 62.890625 104.0625 62.375 C 104.0625 61.859375 103.640625 61.4375 103.125 61.4375 L 99.375 61.4375 C 98.859375 61.4375 98.4375 61.859375 98.4375 62.375 Z M 98.4375 62.375 " fill-opacity="1" fill-rule="nonzero"/><g clip-path="url(#dc82cd93ea)"><path fill="#ffffff" d="M 77.8125 65.1875 L 92.8125 65.1875 C 94.359375 65.1875 95.625 63.921875 95.625 62.375 L 95.625 47.375 C 95.625 45.828125 94.359375 44.5625 92.8125 44.5625 L 77.8125 44.5625 C 76.265625 44.5625 75 45.828125 75 47.375 L 75 62.375 C 75 63.921875 76.265625 65.1875 77.8125 65.1875 Z M 85.3125 48.3125 C 88.921875 48.3125 91.875 51.265625 91.875 54.875 C 91.875 58.484375 88.921875 61.4375 85.3125 61.4375 C 81.703125 61.4375 78.75 58.484375 78.75 54.875 C 78.75 51.265625 81.703125 48.3125 85.3125 48.3125 Z M 85.3125 48.3125 " fill-opacity="1" fill-rule="nonzero"/></g></svg>