<svg xmlns="http://www.w3.org/2000/svg" xmlns:xlink="http://www.w3.org/1999/xlink" width="200" zoomAndPan="magnify" viewBox="0 0 150 149.999998" height="200" preserveAspectRatio="xMidYMid meet" version="1.0"><defs><g/><clipPath id="ab26adc60d"><path d="M 9.070312 6.144531 L 141.070312 6.144531 L 141.070312 138.144531 L 9.070312 138.144531 Z M 9.070312 6.144531 " clip-rule="nonzero"/></clipPath><clipPath id="b483a0c4b4"><path d="M 45 24.671875 L 105 24.671875 L 105 84.671875 L 45 84.671875 Z M 45 24.671875 " clip-rule="nonzero"/></clipPath></defs><g clip-path="url(#ab26adc60d)"><path fill="#56aeff" d="M 75.070312 6.144531 C 38.617188 6.144531 9.070312 35.695312 9.070312 72.144531 C 9.070312 108.597656 38.617188 138.144531 75.070312 138.144531 C 111.519531 138.144531 141.070312 108.597656 141.070312 72.144531 C 141.070312 35.695312 111.519531 6.144531 75.070312 6.144531 " fill-opacity="1" fill-rule="nonzero"/></g><g clip-path="url(#b483a0c4b4)"><path fill="#ffffff" d="M 105 78.992188 L 105 63.367188 C 105 60.265625 102.476562 57.742188 99.375 57.742188 L 83.746094 57.742188 C 80.644531 57.742188 78.121094 60.265625 78.121094 63.367188 L 78.121094 78.992188 C 78.121094 82.09375 80.644531 84.617188 83.746094 84.617188 L 99.375 84.617188 C 102.476562 84.617188 105 82.09375 105 78.992188 Z M 105 45.988281 L 105 30.359375 C 105 27.261719 102.476562 24.734375 99.375 24.734375 L 83.746094 24.734375 C 80.644531 24.734375 78.121094 27.261719 78.121094 30.359375 L 78.121094 45.988281 C 78.121094 49.089844 80.644531 51.613281 83.746094 51.613281 L 99.375 51.613281 C 102.476562 51.613281 105 49.089844 105 45.988281 Z M 71.878906 45.988281 L 71.878906 30.359375 C 71.878906 27.261719 69.355469 24.734375 66.253906 24.734375 L 50.625 24.734375 C 47.523438 24.734375 45 27.261719 45 30.359375 L 45 45.988281 C 45 49.089844 47.523438 51.613281 50.625 51.613281 L 66.253906 51.613281 C 69.355469 51.613281 71.878906 49.089844 71.878906 45.988281 Z M 71.878906 59.96875 C 71.878906 58.929688 71.035156 58.09375 70.003906 58.09375 L 46.875 58.09375 C 45.835938 58.09375 45 58.929688 45 59.96875 C 45 61.003906 45.835938 61.84375 46.875 61.84375 L 70.003906 61.84375 C 71.035156 61.84375 71.878906 61.003906 71.878906 59.96875 Z M 71.523438 71.3125 C 71.523438 70.28125 70.683594 69.4375 69.648438 69.4375 L 46.875 69.4375 C 45.835938 69.4375 45 70.28125 45 71.3125 C 45 72.351562 45.835938 73.1875 46.875 73.1875 L 69.648438 73.1875 C 70.679688 73.1875 71.523438 72.351562 71.523438 71.3125 Z M 69.648438 84.539062 L 46.875 84.539062 C 45.835938 84.539062 45 83.699219 45 82.664062 C 45 81.625 45.835938 80.789062 46.875 80.789062 L 69.648438 80.789062 C 70.683594 80.789062 71.523438 81.625 71.523438 82.664062 C 71.523438 83.699219 70.679688 84.539062 69.648438 84.539062 " fill-opacity="1" fill-rule="nonzero"/></g><g fill="#ffffff" fill-opacity="1"><g transform="translate(29.923141, 113.641644)"><g><path d="M 1.492188 -0.707031 L 1.632812 -0.195312 L 2.003906 0 L 2.398438 0.0390625 L 3.222656 -0.0195312 L 3.988281 0.0195312 L 4.738281 -0.0195312 L 5.109375 0.0390625 L 5.542969 0 L 9.433594 0.0195312 L 9.808594 -0.175781 L 10.023438 -0.785156 L 10.003906 -2.378906 L 9.828125 -2.96875 L 9.472656 -3.203125 L 9.058594 -3.164062 L 8.6875 -3.085938 L 8.273438 -3.144531 L 7.46875 -3.125 L 7.074219 -3.203125 L 6.722656 -3.144531 L 5.953125 -3.183594 L 5.542969 -3.144531 L 5.148438 -3.300781 L 4.992188 -3.695312 L 5.011719 -10.355469 L 4.972656 -10.828125 L 5.011719 -11.613281 L 4.953125 -12.734375 L 4.972656 -13.109375 L 4.777344 -13.539062 L 4.382812 -13.777344 L 3.617188 -13.777344 L 3.222656 -13.699219 L 2.4375 -13.777344 L 2.0625 -13.71875 L 1.652344 -13.5625 L 1.472656 -13.128906 L 1.472656 -10.375 L 1.433594 -10.003906 L 1.472656 -9.609375 L 1.414062 -8.882812 L 1.433594 -8.449219 L 1.472656 -8.078125 Z M 1.492188 -0.707031 "/></g></g></g><g fill="#ffffff" fill-opacity="1"><g transform="translate(40.495076, 113.641644)"><g><path d="M 0.253906 -0.53125 L 0.355469 -0.117188 L 0.746094 -0.0195312 L 2.476562 -0.0195312 L 2.988281 0.0390625 L 3.4375 -0.15625 L 3.792969 -0.511719 L 4.128906 -1.179688 L 4.460938 -1.550781 L 4.933594 -1.75 L 5.324219 -1.710938 L 6.425781 -1.730469 L 6.839844 -1.671875 L 7.292969 -1.730469 L 7.644531 -1.730469 L 8.058594 -1.691406 L 8.980469 -1.730469 L 9.628906 -1.511719 L 10.042969 -1.199219 L 10.140625 -0.84375 L 10.355469 -0.492188 L 10.691406 -0.175781 L 11.203125 0.0195312 L 11.554688 -0.0195312 L 12.242188 0.0390625 L 13.460938 0 L 13.816406 -0.117188 L 13.894531 -0.53125 L 13.777344 -1.023438 L 13.640625 -1.375 L 13.382812 -1.710938 L 13.265625 -2.101562 L 13.070312 -2.398438 L 12.953125 -2.769531 L 12.617188 -3.480469 L 12.480469 -3.851562 L 12.28125 -4.1875 L 12.007812 -4.914062 L 11.792969 -5.226562 L 11.632812 -5.621094 L 11.457031 -5.953125 L 11.320312 -6.347656 L 11.144531 -6.644531 L 11.023438 -7.035156 L 10.808594 -7.390625 L 10.652344 -7.722656 L 10.457031 -8.058594 L 10.355469 -8.429688 L 9.964844 -9.117188 L 9.847656 -9.492188 L 9.492188 -10.238281 L 9.394531 -10.554688 L 9.097656 -11.242188 L 8.707031 -11.96875 L 8.390625 -12.714844 L 8.214844 -13.011719 L 8.097656 -13.382812 L 7.742188 -13.757812 L 7.074219 -13.933594 L 6.445312 -13.738281 L 6.074219 -13.382812 L 5.953125 -13.03125 L 5.109375 -11.261719 L 4.894531 -10.90625 L 3.792969 -8.429688 L 3.695312 -8.097656 L 3.480469 -7.742188 L 3.164062 -7.035156 L 2.871094 -6.523438 L 2.730469 -6.152344 L 2.457031 -5.640625 L 2.339844 -5.226562 L 2.160156 -4.914062 L 2.023438 -4.519531 L 1.472656 -3.5 L 0.902344 -2.0625 L 0.667969 -1.75 L 0.492188 -1.355469 Z M 6.328125 -4.855469 L 5.953125 -5.011719 L 5.894531 -5.40625 L 6.683594 -7.191406 L 6.859375 -7.507812 L 7.113281 -7.703125 L 7.351562 -7.546875 L 7.605469 -6.78125 L 7.820312 -6.445312 L 7.902344 -6.132812 L 8.097656 -5.738281 L 8.234375 -5.386719 L 8.195312 -5.03125 L 7.859375 -4.875 Z M 6.328125 -4.855469 "/></g></g></g><g fill="#ffffff" fill-opacity="1"><g transform="translate(54.761291, 113.641644)"><g><path d="M 0.941406 -0.570312 L 1.140625 -0.15625 L 1.53125 -0.0195312 L 7.371094 0.0195312 L 7.742188 -0.175781 L 7.960938 -0.53125 L 7.960938 -0.964844 L 7.921875 -1.316406 L 7.980469 -2.515625 L 7.703125 -2.851562 L 6.386719 -3.261719 L 6.171875 -3.65625 L 6.210938 -5.265625 L 6.132812 -6.054688 L 6.210938 -6.878906 L 6.171875 -7.46875 L 6.210938 -8.078125 L 6.171875 -8.449219 L 6.210938 -8.84375 L 6.171875 -9.257812 L 6.171875 -10.082031 L 6.386719 -10.4375 L 6.761719 -10.652344 L 7.191406 -10.671875 L 7.566406 -10.886719 L 7.78125 -11.261719 L 7.78125 -12.421875 L 7.820312 -12.773438 L 7.78125 -13.167969 L 7.625 -13.5625 L 6.996094 -13.738281 L 4.5 -13.757812 L 4.066406 -13.71875 L 2.871094 -13.738281 L 2.496094 -13.71875 L 1.730469 -13.757812 L 1.296875 -13.5625 L 1.082031 -13.148438 L 1.082031 -12.773438 L 1.042969 -12.441406 L 1.042969 -12.007812 L 1.082031 -11.613281 L 1.082031 -11.242188 L 1.277344 -10.867188 L 2.476562 -10.457031 L 2.730469 -10.101562 L 2.671875 -8.429688 L 2.691406 -8.097656 L 2.75 -7.644531 L 2.730469 -6.839844 L 2.691406 -6.445312 L 2.769531 -5.679688 L 2.671875 -5.285156 L 2.75 -4.441406 L 2.710938 -3.675781 L 2.515625 -3.242188 L 1.21875 -2.828125 L 0.984375 -2.457031 L 0.941406 -2.082031 Z M 0.941406 -0.570312 "/></g></g></g><g fill="#ffffff" fill-opacity="1"><g transform="translate(63.682585, 113.641644)"><g><path d="M 11.59375 -0.3125 L 12.164062 -0.0585938 L 12.675781 0.0976562 L 13.128906 -0.117188 L 13.304688 -0.53125 L 13.402344 -5.875 L 13.324219 -6.425781 L 13.363281 -6.859375 L 13.285156 -9.21875 L 13.34375 -10.003906 L 13.304688 -10.375 L 13.304688 -11.164062 L 13.382812 -11.554688 L 13.34375 -12.144531 L 13.382812 -13.167969 L 13.148438 -13.519531 L 12.714844 -13.71875 L 12.324219 -13.757812 L 11.949219 -13.757812 L 11.515625 -13.71875 L 11.105469 -13.777344 L 10.75 -13.738281 L 10.355469 -13.757812 L 9.886719 -13.5625 L 9.6875 -13.148438 L 9.667969 -9.570312 L 9.746094 -9.160156 L 9.746094 -8.785156 L 9.667969 -8.371094 L 9.6875 -7.585938 L 9.589844 -7.273438 L 9.316406 -7.351562 L 8.449219 -8.234375 L 8.15625 -8.46875 L 7.46875 -9.179688 L 7.152344 -9.414062 L 6.9375 -9.6875 L 6.523438 -10.121094 L 5.914062 -10.632812 L 5.699219 -10.925781 L 5.324219 -11.183594 L 5.128906 -11.476562 L 4.796875 -11.714844 L 4.539062 -12.046875 L 3.480469 -13.128906 L 2.691406 -13.660156 L 2.160156 -13.816406 L 1.691406 -13.582031 L 1.433594 -13.207031 L 1.472656 -10.457031 L 1.433594 -10.0625 L 1.492188 -9.257812 L 1.453125 -8.902344 L 1.472656 -8.488281 L 1.414062 -8.078125 L 1.492188 -5.265625 L 1.453125 -4.914062 L 1.453125 -4.539062 L 1.414062 -4.109375 L 1.414062 -3.734375 L 1.472656 -3.320312 L 1.453125 -2.515625 L 1.492188 -2.121094 L 1.433594 -1.375 L 1.492188 -0.984375 L 1.492188 -0.609375 L 1.671875 -0.175781 L 2.042969 0.0390625 L 2.710938 0 L 3.695312 0.0585938 L 4.109375 0 L 4.558594 0.0390625 L 4.953125 -0.15625 L 5.128906 -0.550781 L 5.070312 -0.941406 L 5.128906 -5.757812 L 5.050781 -6.171875 L 5.246094 -6.40625 L 5.503906 -6.347656 L 8.3125 -3.597656 L 8.628906 -3.339844 L 10.535156 -1.433594 L 10.789062 -1.121094 L 11.105469 -0.863281 L 11.339844 -0.570312 Z M 11.59375 -0.3125 "/></g></g></g><g fill="#ffffff" fill-opacity="1"><g transform="translate(78.499012, 113.641644)"><g><path d="M 11.59375 -0.3125 L 12.164062 -0.0585938 L 12.675781 0.0976562 L 13.128906 -0.117188 L 13.304688 -0.53125 L 13.402344 -5.875 L 13.324219 -6.425781 L 13.363281 -6.859375 L 13.285156 -9.21875 L 13.34375 -10.003906 L 13.304688 -10.375 L 13.304688 -11.164062 L 13.382812 -11.554688 L 13.34375 -12.144531 L 13.382812 -13.167969 L 13.148438 -13.519531 L 12.714844 -13.71875 L 12.324219 -13.757812 L 11.949219 -13.757812 L 11.515625 -13.71875 L 11.105469 -13.777344 L 10.75 -13.738281 L 10.355469 -13.757812 L 9.886719 -13.5625 L 9.6875 -13.148438 L 9.667969 -9.570312 L 9.746094 -9.160156 L 9.746094 -8.785156 L 9.667969 -8.371094 L 9.6875 -7.585938 L 9.589844 -7.273438 L 9.316406 -7.351562 L 8.449219 -8.234375 L 8.15625 -8.46875 L 7.46875 -9.179688 L 7.152344 -9.414062 L 6.9375 -9.6875 L 6.523438 -10.121094 L 5.914062 -10.632812 L 5.699219 -10.925781 L 5.324219 -11.183594 L 5.128906 -11.476562 L 4.796875 -11.714844 L 4.539062 -12.046875 L 3.480469 -13.128906 L 2.691406 -13.660156 L 2.160156 -13.816406 L 1.691406 -13.582031 L 1.433594 -13.207031 L 1.472656 -10.457031 L 1.433594 -10.0625 L 1.492188 -9.257812 L 1.453125 -8.902344 L 1.472656 -8.488281 L 1.414062 -8.078125 L 1.492188 -5.265625 L 1.453125 -4.914062 L 1.453125 -4.539062 L 1.414062 -4.109375 L 1.414062 -3.734375 L 1.472656 -3.320312 L 1.453125 -2.515625 L 1.492188 -2.121094 L 1.433594 -1.375 L 1.492188 -0.984375 L 1.492188 -0.609375 L 1.671875 -0.175781 L 2.042969 0.0390625 L 2.710938 0 L 3.695312 0.0585938 L 4.109375 0 L 4.558594 0.0390625 L 4.953125 -0.15625 L 5.128906 -0.550781 L 5.070312 -0.941406 L 5.128906 -5.757812 L 5.050781 -6.171875 L 5.246094 -6.40625 L 5.503906 -6.347656 L 8.3125 -3.597656 L 8.628906 -3.339844 L 10.535156 -1.433594 L 10.789062 -1.121094 L 11.105469 -0.863281 L 11.339844 -0.570312 Z M 11.59375 -0.3125 "/></g></g></g><g fill="#ffffff" fill-opacity="1"><g transform="translate(93.315438, 113.641644)"><g><path d="M 4.519531 -0.550781 L 4.738281 -0.214844 L 5.109375 -0.0195312 L 5.816406 0.0195312 L 6.210938 -0.0195312 L 6.625 0 L 7.171875 -0.0195312 L 7.761719 -0.214844 L 7.960938 -0.609375 L 7.960938 -0.941406 L 7.921875 -1.355469 L 7.941406 -1.730469 L 7.921875 -2.082031 L 8.019531 -3.28125 L 7.960938 -3.695312 L 8.019531 -4.835938 L 7.941406 -5.1875 L 8.039062 -5.757812 L 8.726562 -6.957031 L 8.882812 -7.332031 L 9.097656 -7.664062 L 9.589844 -8.3125 L 11.851562 -12.046875 L 12.085938 -12.34375 L 12.222656 -12.695312 L 12.5 -13.167969 L 12.441406 -13.640625 L 12.066406 -13.796875 L 11.675781 -13.738281 L 10.90625 -13.796875 L 10.496094 -13.738281 L 9.746094 -13.738281 L 9.375 -13.777344 L 8.882812 -13.582031 L 8.46875 -13.207031 L 8.136719 -12.539062 L 7.882812 -12.164062 L 7.761719 -11.792969 L 7.3125 -11.144531 L 7.015625 -10.4375 L 6.367188 -9.375 L 6.09375 -9.335938 L 5.640625 -10.042969 L 5.464844 -10.394531 L 5.34375 -10.789062 L 4.363281 -12.519531 L 4.148438 -12.851562 L 3.988281 -13.246094 L 3.558594 -13.5625 L 3.066406 -13.777344 L 0.472656 -13.738281 L 0.0390625 -13.621094 L 0 -13.1875 L 0.195312 -12.714844 L 2.320312 -9.355469 L 2.476562 -9.019531 L 4.226562 -6.269531 L 4.382812 -5.757812 L 4.480469 -5.1875 L 4.460938 -3.636719 L 4.5 -3.242188 L 4.519531 -2.871094 L 4.480469 -2.515625 L 4.460938 -1.769531 L 4.558594 -0.964844 Z M 4.519531 -0.550781 "/></g></g></g><g fill="#ffffff" fill-opacity="1"><g transform="translate(105.813113, 113.641644)"><g><path d="M 0.253906 -0.53125 L 0.355469 -0.117188 L 0.746094 -0.0195312 L 2.476562 -0.0195312 L 2.988281 0.0390625 L 3.4375 -0.15625 L 3.792969 -0.511719 L 4.128906 -1.179688 L 4.460938 -1.550781 L 4.933594 -1.75 L 5.324219 -1.710938 L 6.425781 -1.730469 L 6.839844 -1.671875 L 7.292969 -1.730469 L 7.644531 -1.730469 L 8.058594 -1.691406 L 8.980469 -1.730469 L 9.628906 -1.511719 L 10.042969 -1.199219 L 10.140625 -0.84375 L 10.355469 -0.492188 L 10.691406 -0.175781 L 11.203125 0.0195312 L 11.554688 -0.0195312 L 12.242188 0.0390625 L 13.460938 0 L 13.816406 -0.117188 L 13.894531 -0.53125 L 13.777344 -1.023438 L 13.640625 -1.375 L 13.382812 -1.710938 L 13.265625 -2.101562 L 13.070312 -2.398438 L 12.953125 -2.769531 L 12.617188 -3.480469 L 12.480469 -3.851562 L 12.28125 -4.1875 L 12.007812 -4.914062 L 11.792969 -5.226562 L 11.632812 -5.621094 L 11.457031 -5.953125 L 11.320312 -6.347656 L 11.144531 -6.644531 L 11.023438 -7.035156 L 10.808594 -7.390625 L 10.652344 -7.722656 L 10.457031 -8.058594 L 10.355469 -8.429688 L 9.964844 -9.117188 L 9.847656 -9.492188 L 9.492188 -10.238281 L 9.394531 -10.554688 L 9.097656 -11.242188 L 8.707031 -11.96875 L 8.390625 -12.714844 L 8.214844 -13.011719 L 8.097656 -13.382812 L 7.742188 -13.757812 L 7.074219 -13.933594 L 6.445312 -13.738281 L 6.074219 -13.382812 L 5.953125 -13.03125 L 5.109375 -11.261719 L 4.894531 -10.90625 L 3.792969 -8.429688 L 3.695312 -8.097656 L 3.480469 -7.742188 L 3.164062 -7.035156 L 2.871094 -6.523438 L 2.730469 -6.152344 L 2.457031 -5.640625 L 2.339844 -5.226562 L 2.160156 -4.914062 L 2.023438 -4.519531 L 1.472656 -3.5 L 0.902344 -2.0625 L 0.667969 -1.75 L 0.492188 -1.355469 Z M 6.328125 -4.855469 L 5.953125 -5.011719 L 5.894531 -5.40625 L 6.683594 -7.191406 L 6.859375 -7.507812 L 7.113281 -7.703125 L 7.351562 -7.546875 L 7.605469 -6.78125 L 7.820312 -6.445312 L 7.902344 -6.132812 L 8.097656 -5.738281 L 8.234375 -5.386719 L 8.195312 -5.03125 L 7.859375 -4.875 Z M 6.328125 -4.855469 "/></g></g></g></svg>