<svg xmlns="http://www.w3.org/2000/svg" xmlns:xlink="http://www.w3.org/1999/xlink" width="200" zoomAndPan="magnify" viewBox="0 0 150 149.999998" height="200" preserveAspectRatio="xMidYMid meet" version="1.0"><defs><clipPath id="571bebc987"><path d="M 9.070312 6.144531 L 141.070312 6.144531 L 141.070312 138.144531 L 9.070312 138.144531 Z M 9.070312 6.144531 " clip-rule="nonzero"/></clipPath><clipPath id="7367e2b599"><path d="M 37.964844 38 L 112.214844 38 L 112.214844 112.214844 L 37.964844 112.214844 Z M 37.964844 38 " clip-rule="nonzero"/></clipPath></defs><g clip-path="url(#571bebc987)"><path fill="#56aeff" d="M 75.070312 6.144531 C 38.617188 6.144531 9.070312 35.695312 9.070312 72.144531 C 9.070312 108.597656 38.617188 138.144531 75.070312 138.144531 C 111.519531 138.144531 141.070312 108.597656 141.070312 72.144531 C 141.070312 35.695312 111.519531 6.144531 75.070312 6.144531 " fill-opacity="1" fill-rule="nonzero"/></g><g clip-path="url(#7367e2b599)"><path fill="#ffffff" d="M 112.214844 105.183594 L 112.214844 85.84375 C 112.214844 82.007812 109.089844 78.882812 105.253906 78.882812 L 85.914062 78.882812 C 82.074219 78.882812 78.953125 82.007812 78.953125 85.84375 L 78.953125 105.183594 C 78.953125 109.023438 82.074219 112.144531 85.914062 112.144531 L 105.253906 112.144531 C 109.089844 112.144531 112.214844 109.023438 112.214844 105.183594 Z M 112.214844 64.34375 L 112.214844 45.003906 C 112.214844 41.164062 109.089844 38.042969 105.253906 38.042969 L 85.914062 38.042969 C 82.074219 38.042969 78.953125 41.164062 78.953125 45.003906 L 78.953125 64.34375 C 78.953125 68.179688 82.074219 71.304688 85.914062 71.304688 L 105.253906 71.304688 C 109.089844 71.304688 112.214844 68.179688 112.214844 64.34375 Z M 71.226562 64.34375 L 71.226562 45.003906 C 71.226562 41.164062 68.101562 38.042969 64.265625 38.042969 L 44.925781 38.042969 C 41.089844 38.042969 37.964844 41.164062 37.964844 45.003906 L 37.964844 64.34375 C 37.964844 68.179688 41.089844 71.304688 44.925781 71.304688 L 64.265625 71.304688 C 68.101562 71.304688 71.226562 68.179688 71.226562 64.34375 Z M 71.226562 81.640625 C 71.226562 80.355469 70.183594 79.320312 68.90625 79.320312 L 40.285156 79.320312 C 39 79.320312 37.964844 80.355469 37.964844 81.640625 C 37.964844 82.925781 39 83.960938 40.285156 83.960938 L 68.90625 83.960938 C 70.183594 83.960938 71.226562 82.925781 71.226562 81.640625 Z M 70.785156 95.679688 C 70.785156 94.402344 69.75 93.359375 68.464844 93.359375 L 40.285156 93.359375 C 39 93.359375 37.964844 94.402344 37.964844 95.679688 C 37.964844 96.964844 39 98 40.285156 98 L 68.464844 98 C 69.742188 98 70.785156 96.964844 70.785156 95.679688 Z M 68.464844 112.046875 L 40.285156 112.046875 C 39 112.046875 37.964844 111.007812 37.964844 109.726562 C 37.964844 108.441406 39 107.40625 40.285156 107.40625 L 68.464844 107.40625 C 69.75 107.40625 70.785156 108.441406 70.785156 109.726562 C 70.785156 111.007812 69.742188 112.046875 68.464844 112.046875 " fill-opacity="1" fill-rule="nonzero"/></g></svg>