<svg xmlns="http://www.w3.org/2000/svg" xmlns:xlink="http://www.w3.org/1999/xlink" width="200" zoomAndPan="magnify" viewBox="0 0 150 149.999998" height="200" preserveAspectRatio="xMidYMid meet" version="1.0"><defs><clipPath id="1165758092"><path d="M 9.070312 6.144531 L 141.070312 6.144531 L 141.070312 138.144531 L 9.070312 138.144531 Z M 9.070312 6.144531 " clip-rule="nonzero"/></clipPath><clipPath id="98b428489c"><path d="M 24.351562 49.203125 L 125 49.203125 L 125 63 L 24.351562 63 Z M 24.351562 49.203125 " clip-rule="nonzero"/></clipPath><clipPath id="ce1b19e7cc"><path d="M 24.351562 62 L 125 62 L 125 77 L 24.351562 77 Z M 24.351562 62 " clip-rule="nonzero"/></clipPath><clipPath id="11451d207e"><path d="M 24.351562 76 L 125 76 L 125 89.703125 L 24.351562 89.703125 Z M 24.351562 76 " clip-rule="nonzero"/></clipPath><clipPath id="5055e0543c"><path d="M 57.410156 29.234375 L 99 29.234375 L 99 109 L 57.410156 109 Z M 57.410156 29.234375 " clip-rule="nonzero"/></clipPath></defs><g clip-path="url(#1165758092)"><path fill="#fad02c" d="M 9.070312 6.144531 L 141.070312 6.144531 L 141.070312 138.144531 L 9.070312 138.144531 L 9.070312 6.144531 " fill-opacity="1" fill-rule="nonzero"/></g><g clip-path="url(#98b428489c)"><path fill="#ffffff" d="M 27.371094 62.78125 C 26.617188 62.78125 25.871094 62.417969 25.410156 61.738281 C 24.671875 60.648438 24.945312 59.15625 26.027344 58.40625 L 37.691406 50.351562 C 37.796875 50.277344 37.910156 50.210938 38.023438 50.144531 L 38.058594 50.125 C 38.164062 50.058594 38.273438 49.996094 38.386719 49.941406 C 38.644531 49.8125 38.910156 49.699219 39.171875 49.613281 C 39.449219 49.523438 39.746094 49.449219 40.046875 49.402344 C 41.25 49.207031 42.511719 49.40625 43.59375 49.957031 C 43.816406 50.070312 44.039062 50.207031 44.253906 50.355469 L 52.628906 56.140625 L 61.007812 50.351562 C 61.113281 50.28125 61.21875 50.214844 61.328125 50.152344 L 61.371094 50.128906 C 61.476562 50.0625 61.585938 50 61.695312 49.945312 C 61.941406 49.820312 62.203125 49.710938 62.464844 49.621094 C 62.75 49.527344 63.042969 49.453125 63.339844 49.40625 L 63.398438 49.394531 C 63.679688 49.351562 63.984375 49.328125 64.289062 49.328125 C 65.1875 49.328125 66.085938 49.542969 66.886719 49.945312 C 67.125 50.066406 67.355469 50.207031 67.570312 50.355469 L 67.628906 50.394531 L 75.945312 56.140625 L 84.324219 50.351562 C 84.429688 50.28125 84.53125 50.21875 84.636719 50.160156 L 84.683594 50.132812 C 84.785156 50.066406 84.890625 50.003906 85 49.949219 C 85.238281 49.828125 85.496094 49.71875 85.75 49.632812 C 86.0625 49.527344 86.390625 49.445312 86.71875 49.394531 C 87.917969 49.207031 89.1875 49.414062 90.265625 49.980469 C 90.476562 50.089844 90.6875 50.214844 90.886719 50.355469 L 99.261719 56.140625 L 107.636719 50.355469 C 107.742188 50.28125 107.847656 50.21875 107.953125 50.160156 L 107.992188 50.136719 C 108.09375 50.074219 108.195312 50.015625 108.300781 49.960938 C 108.539062 49.835938 108.792969 49.730469 109.042969 49.640625 C 109.359375 49.535156 109.6875 49.453125 110.015625 49.398438 L 110.042969 49.394531 C 111.226562 49.210938 112.460938 49.410156 113.527344 49.949219 C 113.761719 50.070312 113.992188 50.207031 114.207031 50.355469 L 114.261719 50.394531 L 123.921875 57.070312 C 125.003906 57.816406 125.28125 59.308594 124.539062 60.398438 C 123.796875 61.492188 122.320312 61.769531 121.238281 61.023438 L 111.523438 54.3125 C 111.476562 54.277344 111.433594 54.253906 111.390625 54.230469 C 111.199219 54.132812 110.980469 54.101562 110.761719 54.132812 C 110.699219 54.140625 110.636719 54.15625 110.578125 54.175781 L 110.480469 54.21875 L 110.25 54.355469 L 100.605469 61.023438 C 99.796875 61.582031 98.730469 61.582031 97.921875 61.023438 L 88.207031 54.308594 C 88.164062 54.28125 88.125 54.257812 88.089844 54.238281 C 87.886719 54.132812 87.667969 54.097656 87.441406 54.132812 C 87.378906 54.140625 87.324219 54.15625 87.269531 54.175781 C 87.234375 54.1875 87.203125 54.199219 87.164062 54.21875 L 86.929688 54.359375 L 77.289062 61.023438 C 76.480469 61.582031 75.414062 61.582031 74.605469 61.023438 L 64.890625 54.3125 C 64.84375 54.277344 64.800781 54.253906 64.757812 54.230469 C 64.566406 54.132812 64.347656 54.097656 64.136719 54.128906 L 64.113281 54.132812 C 64.0625 54.140625 64.007812 54.15625 63.953125 54.171875 C 63.921875 54.183594 63.890625 54.199219 63.851562 54.214844 L 63.613281 54.359375 L 53.96875 61.023438 C 53.160156 61.582031 52.097656 61.582031 51.289062 61.023438 L 41.570312 54.308594 C 41.527344 54.277344 41.488281 54.253906 41.449219 54.234375 C 41.246094 54.132812 41.027344 54.097656 40.800781 54.132812 C 40.746094 54.140625 40.695312 54.15625 40.648438 54.171875 C 40.613281 54.183594 40.574219 54.195312 40.539062 54.214844 L 40.292969 54.359375 L 28.710938 62.363281 C 28.300781 62.644531 27.835938 62.78125 27.371094 62.78125 Z M 27.371094 62.78125 " fill-opacity="1" fill-rule="nonzero"/></g><path fill="#ffffff" d="M 52.628906 56.296875 L 51.347656 57.195312 C 50.3125 57.917969 50.046875 59.363281 50.753906 60.421875 C 50.90625 60.652344 51.09375 60.84375 51.300781 60.996094 L 51.34375 61.027344 C 51.445312 61.097656 51.550781 61.160156 51.65625 61.210938 C 51.960938 61.359375 52.292969 61.433594 52.625 61.433594 C 52.949219 61.433594 53.273438 61.363281 53.566406 61.226562 C 53.683594 61.171875 53.800781 61.105469 53.910156 61.027344 L 53.953125 60.996094 C 54.160156 60.84375 54.347656 60.652344 54.5 60.421875 C 55.207031 59.363281 54.941406 57.917969 53.910156 57.195312 L 52.628906 56.296875 " fill-opacity="1" fill-rule="nonzero"/><path fill="#ffffff" d="M 75.945312 56.28125 L 74.65625 57.183594 C 73.617188 57.914062 73.351562 59.367188 74.0625 60.433594 C 74.214844 60.664062 74.402344 60.855469 74.613281 61.007812 L 74.65625 61.039062 C 74.757812 61.113281 74.863281 61.171875 74.96875 61.226562 C 75.277344 61.371094 75.609375 61.449219 75.945312 61.449219 C 76.273438 61.449219 76.597656 61.378906 76.894531 61.238281 C 77.011719 61.183594 77.125 61.117188 77.238281 61.042969 L 77.28125 61.011719 C 77.488281 60.855469 77.675781 60.664062 77.832031 60.433594 C 78.542969 59.367188 78.277344 57.914062 77.238281 57.183594 L 75.945312 56.28125 " fill-opacity="1" fill-rule="nonzero"/><path fill="#ffffff" d="M 99.265625 56.402344 L 98.011719 57.28125 C 96.996094 57.992188 96.738281 59.410156 97.433594 60.449219 C 97.582031 60.671875 97.765625 60.859375 97.96875 61.011719 L 98.011719 61.039062 C 98.109375 61.109375 98.210938 61.167969 98.316406 61.222656 C 98.613281 61.363281 98.941406 61.4375 99.269531 61.4375 C 99.585938 61.4375 99.902344 61.367188 100.191406 61.234375 C 100.304688 61.179688 100.417969 61.117188 100.523438 61.039062 L 100.566406 61.011719 C 100.773438 60.859375 100.953125 60.671875 101.105469 60.449219 C 101.796875 59.410156 101.539062 57.992188 100.523438 57.28125 L 99.265625 56.402344 " fill-opacity="1" fill-rule="nonzero"/><g clip-path="url(#ce1b19e7cc)"><path fill="#ffffff" d="M 27.371094 76.179688 C 26.617188 76.179688 25.871094 75.816406 25.410156 75.136719 C 24.671875 74.046875 24.945312 72.554688 26.027344 71.808594 L 37.691406 63.75 C 37.796875 63.675781 37.910156 63.609375 38.023438 63.546875 L 38.058594 63.523438 C 38.164062 63.460938 38.273438 63.394531 38.386719 63.339844 C 38.644531 63.210938 38.910156 63.101562 39.171875 63.015625 C 39.449219 62.921875 39.746094 62.847656 40.046875 62.800781 C 41.25 62.605469 42.511719 62.804688 43.59375 63.359375 C 43.816406 63.472656 44.039062 63.605469 44.253906 63.753906 L 52.628906 69.539062 L 61.007812 63.75 C 61.109375 63.679688 61.21875 63.613281 61.332031 63.550781 L 61.371094 63.527344 C 61.476562 63.460938 61.585938 63.398438 61.695312 63.34375 C 61.941406 63.21875 62.203125 63.109375 62.464844 63.023438 C 62.75 62.925781 63.042969 62.855469 63.339844 62.804688 L 63.398438 62.796875 C 63.679688 62.75 63.988281 62.726562 64.289062 62.726562 C 65.1875 62.726562 66.085938 62.941406 66.886719 63.347656 C 67.125 63.46875 67.355469 63.605469 67.570312 63.753906 L 67.628906 63.792969 L 75.945312 69.539062 L 84.324219 63.75 C 84.425781 63.679688 84.53125 63.617188 84.636719 63.558594 L 84.679688 63.53125 C 84.785156 63.46875 84.890625 63.40625 85 63.351562 C 85.238281 63.230469 85.496094 63.121094 85.75 63.035156 C 86.0625 62.925781 86.390625 62.847656 86.71875 62.796875 C 87.917969 62.609375 89.1875 62.816406 90.265625 63.378906 C 90.476562 63.488281 90.6875 63.613281 90.886719 63.753906 L 99.261719 69.539062 L 107.636719 63.753906 C 107.746094 63.679688 107.847656 63.617188 107.953125 63.558594 L 107.992188 63.535156 C 108.09375 63.472656 108.195312 63.414062 108.300781 63.359375 C 108.539062 63.234375 108.792969 63.128906 109.042969 63.039062 C 109.359375 62.933594 109.6875 62.851562 110.019531 62.796875 L 110.042969 62.792969 C 111.226562 62.613281 112.464844 62.808594 113.527344 63.351562 C 113.765625 63.46875 113.992188 63.605469 114.207031 63.753906 L 114.261719 63.792969 L 123.921875 70.46875 C 125.003906 71.214844 125.28125 72.707031 124.539062 73.796875 C 123.800781 74.890625 122.320312 75.171875 121.238281 74.421875 L 111.527344 67.710938 C 111.476562 67.675781 111.433594 67.652344 111.390625 67.628906 C 111.199219 67.53125 110.980469 67.5 110.761719 67.53125 C 110.699219 67.542969 110.636719 67.554688 110.578125 67.578125 L 110.480469 67.617188 L 110.25 67.757812 L 100.605469 74.421875 C 99.796875 74.980469 98.730469 74.980469 97.921875 74.421875 L 88.207031 67.710938 C 88.164062 67.679688 88.125 67.65625 88.089844 67.636719 C 87.890625 67.53125 87.667969 67.496094 87.441406 67.53125 C 87.382812 67.542969 87.324219 67.554688 87.269531 67.574219 C 87.238281 67.585938 87.203125 67.597656 87.164062 67.617188 L 86.929688 67.757812 L 77.289062 74.421875 C 76.480469 74.980469 75.414062 74.980469 74.605469 74.421875 L 64.890625 67.710938 C 64.84375 67.675781 64.800781 67.652344 64.757812 67.628906 C 64.613281 67.554688 64.453125 67.519531 64.289062 67.519531 C 64.238281 67.519531 64.1875 67.523438 64.136719 67.53125 L 64.113281 67.535156 C 64.0625 67.542969 64.007812 67.554688 63.953125 67.574219 C 63.921875 67.582031 63.890625 67.597656 63.851562 67.613281 L 63.757812 67.671875 C 63.71875 67.695312 63.679688 67.71875 63.640625 67.738281 L 63.613281 67.757812 L 53.96875 74.421875 C 53.160156 74.980469 52.097656 74.980469 51.289062 74.421875 L 41.570312 67.707031 C 41.527344 67.679688 41.488281 67.65625 41.449219 67.632812 C 41.246094 67.53125 41.027344 67.496094 40.800781 67.53125 C 40.746094 67.542969 40.695312 67.554688 40.648438 67.570312 C 40.609375 67.582031 40.578125 67.59375 40.539062 67.613281 L 40.292969 67.761719 L 28.710938 75.761719 C 28.300781 76.046875 27.835938 76.179688 27.371094 76.179688 Z M 27.371094 76.179688 " fill-opacity="1" fill-rule="nonzero"/></g><path fill="#ffffff" d="M 52.628906 69.695312 L 51.347656 70.59375 C 50.3125 71.316406 50.046875 72.765625 50.753906 73.824219 C 50.90625 74.050781 51.09375 74.242188 51.300781 74.394531 L 51.34375 74.425781 C 51.445312 74.496094 51.550781 74.558594 51.65625 74.609375 C 51.960938 74.757812 52.292969 74.832031 52.625 74.832031 C 52.949219 74.832031 53.273438 74.761719 53.566406 74.625 C 53.683594 74.570312 53.800781 74.503906 53.910156 74.425781 L 53.953125 74.394531 C 54.160156 74.242188 54.347656 74.050781 54.5 73.824219 C 55.207031 72.765625 54.941406 71.320312 53.910156 70.59375 L 52.628906 69.695312 " fill-opacity="1" fill-rule="nonzero"/><path fill="#ffffff" d="M 75.945312 69.679688 L 74.65625 70.582031 C 73.617188 71.3125 73.351562 72.765625 74.0625 73.832031 C 74.214844 74.0625 74.402344 74.253906 74.613281 74.410156 L 74.65625 74.441406 C 74.757812 74.511719 74.863281 74.574219 74.96875 74.625 C 75.277344 74.773438 75.609375 74.847656 75.945312 74.847656 C 76.273438 74.847656 76.597656 74.777344 76.894531 74.640625 C 77.011719 74.582031 77.125 74.519531 77.238281 74.441406 L 77.28125 74.410156 C 77.488281 74.253906 77.675781 74.0625 77.832031 73.832031 C 78.542969 72.769531 78.277344 71.3125 77.238281 70.582031 L 75.945312 69.679688 " fill-opacity="1" fill-rule="nonzero"/><path fill="#ffffff" d="M 99.265625 69.800781 L 98.011719 70.683594 C 96.996094 71.394531 96.738281 72.808594 97.433594 73.847656 C 97.582031 74.070312 97.765625 74.261719 97.96875 74.410156 L 98.011719 74.441406 C 98.109375 74.507812 98.210938 74.570312 98.316406 74.621094 C 98.613281 74.765625 98.941406 74.839844 99.269531 74.839844 C 99.585938 74.839844 99.902344 74.769531 100.191406 74.632812 C 100.304688 74.582031 100.417969 74.515625 100.523438 74.441406 L 100.566406 74.410156 C 100.773438 74.261719 100.953125 74.070312 101.105469 73.847656 C 101.796875 72.808594 101.539062 71.394531 100.523438 70.683594 L 99.265625 69.800781 " fill-opacity="1" fill-rule="nonzero"/><g clip-path="url(#11451d207e)"><path fill="#ffffff" d="M 27.371094 89.707031 C 26.617188 89.707031 25.871094 89.339844 25.410156 88.664062 C 24.671875 87.570312 24.945312 86.078125 26.027344 85.332031 L 37.6875 77.277344 C 37.796875 77.199219 37.910156 77.132812 38.023438 77.070312 L 38.058594 77.050781 C 38.164062 76.984375 38.269531 76.921875 38.378906 76.867188 C 38.644531 76.734375 38.910156 76.625 39.167969 76.539062 C 39.453125 76.445312 39.746094 76.375 40.046875 76.324219 C 41.234375 76.128906 42.507812 76.328125 43.59375 76.882812 C 43.816406 76.996094 44.039062 77.128906 44.253906 77.277344 L 52.628906 83.0625 L 61.003906 77.277344 C 61.113281 77.203125 61.222656 77.136719 61.332031 77.074219 L 61.371094 77.054688 C 61.476562 76.988281 61.582031 76.925781 61.691406 76.871094 C 61.941406 76.742188 62.203125 76.632812 62.464844 76.546875 C 62.753906 76.449219 63.046875 76.378906 63.339844 76.328125 L 63.398438 76.320312 C 63.679688 76.273438 63.984375 76.25 64.289062 76.25 C 65.1875 76.25 66.085938 76.464844 66.886719 76.871094 C 67.128906 76.992188 67.359375 77.128906 67.574219 77.277344 L 67.628906 77.316406 L 75.945312 83.0625 L 84.320312 77.277344 C 84.429688 77.203125 84.535156 77.140625 84.636719 77.082031 L 84.683594 77.054688 C 84.785156 76.992188 84.894531 76.929688 85 76.875 C 85.238281 76.753906 85.496094 76.644531 85.753906 76.554688 C 86.0625 76.449219 86.390625 76.371094 86.722656 76.320312 C 87.902344 76.132812 89.1875 76.339844 90.269531 76.902344 C 90.476562 77.011719 90.6875 77.136719 90.886719 77.277344 L 99.265625 83.0625 L 107.636719 77.28125 C 107.746094 77.203125 107.851562 77.140625 107.957031 77.082031 C 108.09375 76.996094 108.199219 76.9375 108.304688 76.882812 C 108.539062 76.761719 108.792969 76.652344 109.046875 76.5625 C 109.359375 76.457031 109.6875 76.375 110.019531 76.320312 L 110.042969 76.320312 C 111.21875 76.136719 112.460938 76.332031 113.527344 76.875 C 113.769531 76.996094 113.996094 77.132812 114.207031 77.277344 L 114.265625 77.316406 L 123.921875 83.992188 C 125.003906 84.738281 125.28125 86.230469 124.539062 87.324219 C 123.800781 88.414062 122.324219 88.695312 121.238281 87.945312 L 111.527344 81.234375 C 111.480469 81.203125 111.4375 81.175781 111.390625 81.152344 C 111.203125 81.054688 110.972656 81.023438 110.765625 81.054688 C 110.699219 81.066406 110.636719 81.082031 110.582031 81.101562 L 110.484375 81.140625 L 110.257812 81.277344 L 100.605469 87.945312 C 99.796875 88.503906 98.730469 88.503906 97.921875 87.945312 L 88.207031 81.234375 C 88.167969 81.203125 88.128906 81.179688 88.089844 81.160156 C 87.890625 81.054688 87.664062 81.023438 87.445312 81.054688 C 87.382812 81.066406 87.324219 81.078125 87.269531 81.097656 C 87.246094 81.105469 87.210938 81.121094 87.167969 81.140625 L 87.070312 81.199219 C 87.039062 81.21875 87 81.242188 86.957031 81.265625 L 86.9375 81.28125 L 77.289062 87.945312 C 76.480469 88.503906 75.414062 88.503906 74.605469 87.945312 L 64.890625 81.234375 C 64.84375 81.203125 64.800781 81.175781 64.753906 81.152344 C 64.566406 81.058594 64.339844 81.023438 64.136719 81.054688 L 64.113281 81.058594 C 64.0625 81.066406 64.007812 81.078125 63.953125 81.097656 L 63.855469 81.136719 L 63.757812 81.195312 C 63.71875 81.21875 63.679688 81.242188 63.640625 81.265625 L 53.96875 87.945312 C 53.160156 88.503906 52.097656 88.503906 51.289062 87.945312 L 41.570312 81.230469 C 41.527344 81.203125 41.488281 81.179688 41.449219 81.160156 C 41.246094 81.054688 41.019531 81.019531 40.800781 81.054688 C 40.746094 81.066406 40.691406 81.078125 40.644531 81.09375 C 40.613281 81.105469 40.578125 81.121094 40.539062 81.136719 L 40.296875 81.28125 L 28.710938 89.285156 C 28.300781 89.570312 27.835938 89.707031 27.371094 89.707031 Z M 27.371094 89.707031 " fill-opacity="1" fill-rule="nonzero"/></g><path fill="#ffffff" d="M 52.644531 83.121094 L 51.339844 84.035156 C 50.285156 84.777344 50.015625 86.25 50.738281 87.328125 C 50.894531 87.5625 51.082031 87.757812 51.292969 87.910156 L 51.339844 87.945312 C 51.441406 88.015625 51.550781 88.078125 51.65625 88.132812 C 51.96875 88.28125 52.304688 88.355469 52.644531 88.359375 C 52.976562 88.355469 53.304688 88.285156 53.605469 88.144531 C 53.722656 88.089844 53.839844 88.023438 53.953125 87.945312 L 53.996094 87.910156 C 54.210938 87.757812 54.398438 87.5625 54.554688 87.328125 C 55.273438 86.25 55.003906 84.777344 53.953125 84.035156 L 52.644531 83.121094 " fill-opacity="1" fill-rule="nonzero"/><path fill="#ffffff" d="M 75.945312 83.132812 L 74.625 84.050781 C 73.558594 84.789062 73.285156 86.265625 74.015625 87.347656 C 74.171875 87.582031 74.363281 87.777344 74.578125 87.933594 L 74.625 87.964844 C 74.726562 88.035156 74.835938 88.097656 74.945312 88.152344 C 75.257812 88.300781 75.601562 88.378906 75.945312 88.378906 C 76.28125 88.378906 76.613281 88.304688 76.917969 88.164062 C 77.039062 88.109375 77.15625 88.042969 77.269531 87.964844 L 77.3125 87.933594 C 77.527344 87.777344 77.71875 87.582031 77.878906 87.347656 C 78.609375 86.265625 78.335938 84.789062 77.269531 84.050781 L 75.945312 83.132812 " fill-opacity="1" fill-rule="nonzero"/><path fill="#ffffff" d="M 99.265625 83.152344 L 97.957031 84.0625 C 96.898438 84.796875 96.625 86.261719 97.351562 87.335938 C 97.507812 87.566406 97.699219 87.761719 97.910156 87.917969 L 97.957031 87.949219 C 98.058594 88.019531 98.164062 88.082031 98.273438 88.132812 C 98.585938 88.28125 98.925781 88.359375 99.269531 88.359375 C 99.597656 88.359375 99.929688 88.285156 100.230469 88.148438 C 100.351562 88.09375 100.46875 88.027344 100.578125 87.949219 L 100.625 87.917969 C 100.835938 87.761719 101.027344 87.566406 101.183594 87.335938 C 101.910156 86.261719 101.636719 84.796875 100.578125 84.0625 L 99.265625 83.152344 " fill-opacity="1" fill-rule="nonzero"/><g clip-path="url(#5055e0543c)"><path fill="#ff0000" d="M 92.835938 29.722656 L 73.011719 29.722656 C 71.828125 29.722656 70.769531 30.464844 70.363281 31.582031 L 58.101562 65.1875 C 57.425781 67.039062 58.789062 69 60.757812 69 L 74.851562 69 C 75.3125 69 75.734375 69.226562 75.996094 69.597656 C 76.257812 69.972656 76.320312 70.453125 76.167969 70.882812 L 62.261719 106.160156 C 61.625 107.777344 63.800781 108.988281 64.824219 107.59375 C 74.230469 94.785156 90.96875 71.949219 98.054688 62.289062 C 99.429688 60.414062 98.089844 57.777344 95.773438 57.777344 L 84.621094 57.777344 C 84.128906 57.777344 83.671875 57.515625 83.421875 57.089844 C 83.171875 56.660156 83.160156 56.132812 83.398438 55.703125 L 95.308594 33.925781 C 96.34375 32.035156 94.980469 29.722656 92.835938 29.722656 " fill-opacity="1" fill-rule="nonzero"/></g></svg>