<svg xmlns="http://www.w3.org/2000/svg" xmlns:xlink="http://www.w3.org/1999/xlink" width="200" zoomAndPan="magnify" viewBox="0 0 150 149.999998" height="200" preserveAspectRatio="xMidYMid meet" version="1.0"><defs><clipPath id="77149e3557"><path d="M 9.070312 16.410156 L 141.070312 16.410156 L 141.070312 148.410156 L 9.070312 148.410156 Z M 9.070312 16.410156 " clip-rule="nonzero"/></clipPath><clipPath id="cdde5a6e15"><path d="M 51.554688 42.691406 L 98.804688 42.691406 L 98.804688 122.191406 L 51.554688 122.191406 Z M 51.554688 42.691406 " clip-rule="nonzero"/></clipPath><clipPath id="c51fc16f4b"><path d="M 61.089844 49.195312 L 70.089844 49.195312 L 70.089844 57.445312 L 61.089844 57.445312 Z M 61.089844 49.195312 " clip-rule="nonzero"/></clipPath><clipPath id="32c6d8e573"><path d="M 72.761719 49.195312 L 81.761719 49.195312 L 81.761719 57.445312 L 72.761719 57.445312 Z M 72.761719 49.195312 " clip-rule="nonzero"/></clipPath><clipPath id="9da6435851"><path d="M 61.089844 62.410156 L 70.089844 62.410156 L 70.089844 70.660156 L 61.089844 70.660156 Z M 61.089844 62.410156 " clip-rule="nonzero"/></clipPath></defs><g clip-path="url(#77149e3557)"><path fill="#56aeff" d="M 75.070312 16.410156 C 38.617188 16.410156 9.070312 45.960938 9.070312 82.410156 C 9.070312 118.859375 38.617188 148.410156 75.070312 148.410156 C 111.519531 148.410156 141.070312 118.859375 141.070312 82.410156 C 141.070312 45.960938 111.519531 16.410156 75.070312 16.410156 " fill-opacity="1" fill-rule="nonzero"/></g><g clip-path="url(#cdde5a6e15)"><path fill="#ffffff" d="M 89.710938 42.691406 L 60.652344 42.691406 C 55.640625 42.691406 51.570312 46.738281 51.570312 51.722656 L 51.570312 113.15625 C 51.570312 118.140625 55.640625 122.191406 60.652344 122.191406 L 89.710938 122.191406 C 94.722656 122.191406 98.792969 118.140625 98.792969 113.15625 L 98.792969 51.722656 C 98.792969 46.738281 94.722656 42.691406 89.710938 42.691406 Z M 75.179688 118.578125 C 72.167969 118.578125 69.734375 116.15625 69.734375 113.15625 C 69.734375 110.15625 72.167969 107.734375 75.179688 107.734375 C 78.195312 107.734375 80.628906 110.15625 80.628906 113.15625 C 80.628906 116.15625 78.195312 118.578125 75.179688 118.578125 Z M 91.527344 104.121094 L 58.835938 104.121094 L 58.835938 53.53125 L 91.527344 53.53125 Z M 91.527344 104.121094 " fill-opacity="1" fill-rule="nonzero"/></g><g clip-path="url(#c51fc16f4b)"><path fill="#ffffff" d="M 61.09375 49.195312 L 70.085938 49.195312 L 70.085938 57.445312 L 61.09375 57.445312 L 61.09375 49.195312 " fill-opacity="1" fill-rule="nonzero"/></g><g clip-path="url(#32c6d8e573)"><path fill="#ffffff" d="M 72.761719 49.195312 L 81.757812 49.195312 L 81.757812 57.445312 L 72.761719 57.445312 L 72.761719 49.195312 " fill-opacity="1" fill-rule="nonzero"/></g><g clip-path="url(#9da6435851)"><path fill="#ffffff" d="M 61.09375 62.410156 L 70.085938 62.410156 L 70.085938 70.660156 L 61.09375 70.660156 L 61.09375 62.410156 " fill-opacity="1" fill-rule="nonzero"/></g></svg>