<svg xmlns="http://www.w3.org/2000/svg" xmlns:xlink="http://www.w3.org/1999/xlink" width="200" zoomAndPan="magnify" viewBox="0 0 150 149.999998" height="200" preserveAspectRatio="xMidYMid meet" version="1.0"><defs><g/><clipPath id="04532bb6e0"><path d="M 9.070312 6.144531 L 141.070312 6.144531 L 141.070312 138.144531 L 9.070312 138.144531 Z M 9.070312 6.144531 " clip-rule="nonzero"/></clipPath><clipPath id="7f0241be6b"><path d="M 45 19.835938 L 105 19.835938 L 105 79.835938 L 45 79.835938 Z M 45 19.835938 " clip-rule="nonzero"/></clipPath></defs><g clip-path="url(#04532bb6e0)"><path fill="#56aeff" d="M 75.070312 6.144531 C 38.617188 6.144531 9.070312 35.695312 9.070312 72.144531 C 9.070312 108.597656 38.617188 138.144531 75.070312 138.144531 C 111.519531 138.144531 141.070312 108.597656 141.070312 72.144531 C 141.070312 35.695312 111.519531 6.144531 75.070312 6.144531 " fill-opacity="1" fill-rule="nonzero"/></g><g clip-path="url(#7f0241be6b)"><path fill="#ffffff" d="M 97 35.140625 L 90.890625 37.433594 C 90.207031 37.691406 89.484375 37.792969 88.753906 37.734375 C 86.183594 37.539062 81.480469 37.179688 78.886719 36.984375 C 78.15625 36.929688 77.53125 36.46875 77.257812 35.78125 L 77.230469 35.722656 C 77.023438 35.199219 77.0625 34.617188 77.339844 34.125 C 77.617188 33.632812 78.09375 33.300781 78.652344 33.210938 L 87.160156 31.820312 L 86.839844 29.847656 L 84.984375 30.148438 L 76.996094 26.746094 L 58.5625 34.703125 C 58.414062 34.765625 58.265625 34.828125 58.121094 34.894531 L 57.570312 35.132812 C 56.859375 35.4375 56.039062 35.21875 55.574219 34.601562 C 55.289062 34.21875 55.179688 33.75 55.273438 33.28125 C 55.363281 32.808594 55.640625 32.414062 56.050781 32.167969 L 72.566406 22.261719 C 73.03125 21.980469 73.566406 21.835938 74.109375 21.835938 L 89.230469 21.835938 C 89.613281 21.835938 89.988281 21.90625 90.34375 22.050781 L 93.914062 23.476562 C 94.507812 23.714844 95.132812 23.835938 95.769531 23.835938 L 97 23.835938 Z M 75.375 36.464844 L 75.398438 36.523438 C 75.75 37.398438 76.375 38.089844 77.160156 38.519531 L 75 40.75 L 71.9375 37.585938 C 70.125 35.710938 67.746094 34.460938 65.199219 34.015625 L 77.003906 28.921875 L 81.292969 30.75 L 78.328125 31.234375 C 77.171875 31.425781 76.175781 32.117188 75.597656 33.140625 C 75.019531 34.164062 74.941406 35.375 75.375 36.464844 Z M 97 46.359375 C 96.976562 49.148438 95.917969 51.765625 94.011719 53.738281 L 80.796875 67.40625 L 74.179688 70.242188 C 73.429688 70.5625 72.570312 70.5625 71.820312 70.242188 L 68.707031 68.917969 L 71.671875 68.433594 C 72.828125 68.242188 73.824219 67.550781 74.402344 66.527344 C 74.980469 65.503906 75.0625 64.292969 74.625 63.203125 L 74.601562 63.144531 C 74.039062 61.742188 72.761719 60.800781 71.261719 60.6875 C 68.871094 60.511719 64.683594 60.191406 62.03125 59.988281 L 55.988281 53.738281 C 54.082031 51.765625 53.023438 49.148438 53 46.359375 C 52.976562 43.570312 53.996094 40.9375 55.863281 38.9375 C 56.773438 37.960938 57.855469 37.199219 59.046875 36.671875 L 59.144531 36.632812 C 60.335938 36.121094 61.640625 35.847656 62.996094 35.835938 C 63.027344 35.835938 63.054688 35.835938 63.085938 35.835938 C 65.867188 35.835938 68.566406 36.976562 70.5 38.972656 L 75 43.628906 L 79.445312 39.03125 C 82.117188 39.234375 86.25 39.550781 88.601562 39.730469 C 88.785156 39.742188 88.964844 39.75 89.144531 39.75 C 89.980469 39.75 90.804688 39.601562 91.59375 39.304688 L 93.710938 38.511719 C 93.859375 38.648438 94 38.789062 94.140625 38.9375 C 96.003906 40.9375 97.023438 43.570312 97 46.359375 Z M 92.488281 64.570312 C 93.183594 64.273438 93.988281 64.488281 94.445312 65.09375 C 94.726562 65.46875 94.832031 65.929688 94.742188 66.390625 C 94.652344 66.851562 94.378906 67.238281 93.976562 67.480469 L 77.4375 77.40625 C 76.96875 77.6875 76.4375 77.835938 75.890625 77.835938 L 60.769531 77.835938 C 60.386719 77.835938 60.011719 77.761719 59.65625 77.621094 L 56.085938 76.191406 C 55.492188 75.953125 54.867188 75.835938 54.230469 75.835938 L 53 75.835938 L 53 64.527344 L 59.109375 62.238281 C 59.796875 61.980469 60.515625 61.875 61.246094 61.933594 C 63.816406 62.128906 68.519531 62.488281 71.113281 62.683594 C 71.84375 62.738281 72.46875 63.199219 72.746094 63.886719 L 72.769531 63.945312 C 72.976562 64.46875 72.9375 65.050781 72.660156 65.542969 C 72.382812 66.035156 71.90625 66.367188 71.347656 66.460938 L 62.839844 67.847656 L 63.160156 69.820312 L 65.019531 69.519531 L 71.035156 72.082031 C 72.285156 72.617188 73.71875 72.613281 74.964844 72.078125 Z M 51 75.835938 L 47 75.835938 L 47 64.835938 L 51 64.835938 Z M 99 23.835938 L 103 23.835938 L 103 34.835938 L 99 34.835938 Z M 105 36.835938 L 105 21.835938 L 95.769531 21.835938 C 95.386719 21.835938 95.011719 21.761719 94.65625 21.621094 L 91.085938 20.191406 C 90.492188 19.953125 89.867188 19.835938 89.230469 19.835938 L 74.109375 19.835938 C 73.203125 19.835938 72.3125 20.082031 71.535156 20.546875 L 55.023438 30.453125 C 54.132812 30.988281 53.507812 31.878906 53.308594 32.894531 C 53.109375 33.914062 53.351562 34.972656 53.976562 35.800781 C 54.300781 36.238281 54.710938 36.582031 55.164062 36.828125 C 54.898438 37.0625 54.644531 37.3125 54.398438 37.574219 C 52.179688 39.949219 50.972656 43.074219 51 46.375 C 51.027344 49.679688 52.285156 52.785156 54.550781 55.128906 L 59.347656 60.085938 C 59.027344 60.15625 58.714844 60.25 58.40625 60.363281 L 51.820312 62.835938 L 45 62.835938 L 45 77.835938 L 54.230469 77.835938 C 54.613281 77.835938 54.988281 77.90625 55.34375 78.050781 L 58.914062 79.476562 C 59.507812 79.714844 60.132812 79.835938 60.769531 79.835938 L 75.890625 79.835938 C 76.796875 79.835938 77.6875 79.585938 78.464844 79.121094 L 95.003906 69.195312 C 95.886719 68.667969 96.507812 67.785156 96.703125 66.777344 C 96.902344 65.765625 96.660156 64.714844 96.042969 63.894531 C 95.035156 62.546875 93.25 62.070312 91.699219 62.730469 L 85.546875 65.367188 L 95.449219 55.128906 C 97.714844 52.785156 98.972656 49.679688 99 46.375 C 99.023438 43.152344 97.875 40.097656 95.757812 37.742188 L 98.179688 36.835938 L 105 36.835938 " fill-opacity="1" fill-rule="nonzero"/></g><path fill="#ffffff" d="M 72 49.835938 L 72 51.835938 L 68 51.835938 L 68 55.835938 L 66 55.835938 L 66 51.835938 L 62 51.835938 L 62 49.835938 L 66 49.835938 L 66 45.835938 L 68 45.835938 L 68 49.835938 Z M 70 43.835938 L 64 43.835938 L 64 47.835938 L 60 47.835938 L 60 53.835938 L 64 53.835938 L 64 57.835938 L 70 57.835938 L 70 53.835938 L 74 53.835938 L 74 47.835938 L 70 47.835938 L 70 43.835938 " fill-opacity="1" fill-rule="nonzero"/><path fill="#ffffff" d="M 84 53.214844 L 82 54.214844 L 82 59.835938 L 80 59.835938 L 80 54.214844 L 78 53.214844 L 78 50.070312 C 78 49.6875 78.210938 49.347656 78.554688 49.175781 L 81 47.953125 L 83.449219 49.175781 C 83.789062 49.347656 84 49.6875 84 50.070312 Z M 80 44.070312 C 80 43.6875 80.210938 43.347656 80.554688 43.175781 C 80.691406 43.105469 80.847656 43.070312 81 43.070312 C 81.152344 43.070312 81.308594 43.105469 81.449219 43.175781 C 81.789062 43.347656 82 43.6875 82 44.070312 L 82 44.597656 C 82 44.980469 81.789062 45.320312 81.449219 45.492188 L 81 45.714844 L 80.554688 45.492188 C 80.210938 45.320312 80 44.980469 80 44.597656 Z M 84.34375 47.386719 L 83.085938 46.757812 C 83.664062 46.203125 84 45.429688 84 44.597656 L 84 44.070312 C 84 42.925781 83.363281 41.898438 82.34375 41.386719 C 81.5 40.96875 80.5 40.96875 79.660156 41.386719 C 78.636719 41.898438 78 42.925781 78 44.070312 L 78 44.597656 C 78 45.429688 78.335938 46.203125 78.914062 46.757812 L 77.660156 47.386719 C 76.636719 47.898438 76 48.925781 76 50.070312 L 76 54.453125 L 78 55.453125 L 78 61.835938 L 84 61.835938 L 84 55.453125 L 86 54.453125 L 86 50.070312 C 86 48.925781 85.363281 47.898438 84.34375 47.386719 " fill-opacity="1" fill-rule="nonzero"/><g fill="#ffffff" fill-opacity="1"><g transform="translate(35.595936, 113.230311)"><g><path d="M 2.292969 -0.945312 L 2.566406 -0.335938 L 3.144531 0.03125 L 4.15625 -0.0625 L 5.070312 0.03125 L 9.5 -0.03125 L 10.109375 0.0625 L 13.257812 -0.0898438 L 13.808594 -0.183594 L 15.519531 -0.671875 L 16.066406 -0.945312 L 17.289062 -1.925781 L 18.113281 -3.054688 L 18.421875 -3.664062 L 18.605469 -4.246094 L 18.847656 -4.828125 L 18.910156 -7.300781 L 18.574219 -8.402344 L 18.023438 -9.652344 L 17.625 -10.109375 L 17.136719 -10.539062 L 16.832031 -11.242188 L 17.046875 -11.820312 L 17.625 -13.011719 L 17.992188 -14.113281 L 18.023438 -15.152344 L 17.960938 -16.097656 L 17.71875 -17.199219 L 17.503906 -17.839844 L 16.496094 -19.246094 L 16.039062 -19.671875 L 15.578125 -19.976562 L 15.152344 -20.3125 L 14.632812 -20.621094 L 14.050781 -20.894531 L 13.53125 -21.078125 L 12.339844 -21.351562 L 9.195312 -21.445312 L 8.644531 -21.324219 L 7.453125 -21.476562 L 6.902344 -21.351562 L 3.207031 -21.414062 L 2.535156 -21.109375 L 2.230469 -20.46875 L 2.230469 -19.796875 L 2.292969 -19.246094 L 2.261719 -18.605469 L 2.292969 -18.054688 L 2.230469 -16.25 L 2.320312 -14.96875 L 2.199219 -9.132812 L 2.292969 -8.21875 L 2.230469 -1.527344 Z M 8.554688 -13.042969 L 7.910156 -13.410156 L 7.574219 -14.265625 L 7.546875 -15.304688 L 7.910156 -16.191406 L 8.492188 -16.558594 L 11.640625 -16.34375 L 12.128906 -16.097656 L 12.371094 -15.609375 L 12.464844 -14.695312 L 12.25 -13.808594 L 11.792969 -13.441406 L 10.90625 -13.136719 Z M 8.460938 -4.886719 L 7.910156 -5.101562 L 7.515625 -5.710938 L 7.605469 -7.546875 L 7.882812 -8.066406 L 8.402344 -8.460938 L 8.980469 -8.371094 L 9.621094 -8.429688 L 12.492188 -8.15625 L 13.011719 -7.941406 L 13.320312 -7.390625 L 13.503906 -6.628906 L 13.347656 -5.742188 L 13.011719 -5.316406 L 12.492188 -4.980469 L 10.8125 -4.828125 Z M 8.460938 -4.886719 "/></g></g></g><g fill="#ffffff" fill-opacity="1"><g transform="translate(55.75476, 113.230311)"><g><path d="M 4.09375 0.0898438 L 5.589844 0.03125 L 6.140625 0.0625 L 6.84375 0 L 7.484375 -0.246094 L 7.757812 -0.886719 L 7.730469 -1.496094 L 7.757812 -2.167969 L 7.699219 -3.300781 L 7.757812 -3.878906 L 7.730469 -4.582031 L 8.003906 -5.132812 L 8.707031 -5.46875 L 9.378906 -5.527344 L 10.019531 -5.40625 L 13.167969 -5.652344 L 16.066406 -6.8125 L 16.527344 -7.179688 L 16.953125 -7.667969 L 17.351562 -8.066406 L 17.75 -8.523438 L 18.390625 -9.5 L 18.910156 -10.691406 L 19 -11.363281 L 19.183594 -11.851562 L 19.246094 -14.359375 L 19.121094 -14.875 L 19.03125 -15.546875 L 18.664062 -16.679688 L 18.085938 -17.71875 L 17.351562 -18.726562 L 15.976562 -19.917969 L 14.96875 -20.589844 L 13.746094 -20.957031 L 13.226562 -21.167969 L 12.617188 -21.167969 L 12.003906 -21.382812 L 11.089844 -21.414062 L 10.109375 -21.382812 L 9.4375 -21.292969 L 7.574219 -21.324219 L 6.964844 -21.414062 L 5.070312 -21.292969 L 4.398438 -21.324219 L 3.847656 -21.414062 L 3.207031 -21.292969 L 2.566406 -20.957031 L 2.292969 -20.46875 L 2.320312 -16.769531 L 2.199219 -15.546875 L 2.261719 -14.96875 L 2.230469 -7.054688 L 2.292969 -6.476562 L 2.261719 -0.824219 L 2.597656 -0.246094 L 3.542969 0.0625 Z M 8.675781 -10.355469 L 8.066406 -10.722656 L 7.789062 -11.242188 L 7.699219 -13.714844 L 7.757812 -14.359375 L 7.757812 -15.609375 L 8.066406 -16.191406 L 8.707031 -16.496094 L 11.882812 -16.402344 L 12.492188 -16.128906 L 12.984375 -15.792969 L 13.378906 -15.394531 L 13.683594 -14.785156 L 13.777344 -14.234375 L 13.839844 -13.378906 L 13.777344 -12.554688 L 13.5625 -12.003906 L 13.289062 -11.515625 L 12.890625 -11.027344 L 12.402344 -10.660156 L 11.914062 -10.507812 L 10.964844 -10.386719 L 9.410156 -10.417969 Z M 8.675781 -10.355469 "/></g></g></g><g fill="#ffffff" fill-opacity="1"><g transform="translate(75.8525, 113.230311)"><g><path d="M 7.757812 0.335938 L 8.707031 0.335938 L 9.5625 0.246094 L 10.234375 0.246094 L 11.457031 0.0625 L 12.003906 -0.273438 L 13.714844 -1.070312 L 14.144531 -1.4375 L 14.664062 -1.800781 L 15.886719 -3.144531 L 16.402344 -4.183594 L 16.800781 -5.5 L 16.953125 -6.996094 L 16.894531 -15.089844 L 16.984375 -15.640625 L 16.921875 -20.496094 L 16.617188 -21.109375 L 15.671875 -21.351562 L 14.144531 -21.382812 L 13.503906 -21.324219 L 11.058594 -21.414062 L 10.386719 -21.324219 L 9.5 -21.476562 L 8.582031 -21.324219 L 7.941406 -21.324219 L 7.300781 -21.046875 L 6.964844 -20.527344 L 7.027344 -19.886719 L 6.996094 -19.304688 L 7.027344 -18.574219 L 6.964844 -18.085938 L 7.027344 -17.472656 L 7.238281 -16.832031 L 7.941406 -16.527344 L 8.523438 -16.433594 L 9.410156 -16.433594 L 10.355469 -16.496094 L 10.996094 -16.160156 L 11.332031 -15.578125 L 11.210938 -6.203125 L 10.964844 -5.589844 L 10.628906 -5.164062 L 9.5625 -4.644531 L 8.675781 -4.550781 L 7.820312 -4.734375 L 7.210938 -4.949219 L 6.660156 -5.253906 L 6.230469 -5.652344 L 6.019531 -6.171875 L 5.835938 -7.117188 L 5.804688 -8.492188 L 5.863281 -9.042969 L 5.527344 -9.59375 L 4.855469 -9.835938 L 2.933594 -9.898438 L 2.320312 -9.835938 L 1.648438 -9.835938 L 0.976562 -9.5625 L 0.671875 -8.980469 L 0.640625 -7.910156 L 0.734375 -7.027344 L 0.703125 -6.109375 L 0.765625 -5.5 L 0.945312 -4.886719 L 1.375 -3.789062 L 2.351562 -2.199219 L 2.839844 -1.742188 L 4.246094 -0.671875 L 5.375 -0.246094 L 5.925781 -0.121094 L 6.597656 0.152344 L 7.148438 0.152344 Z M 7.757812 0.335938 "/></g></g></g><g fill="#ffffff" fill-opacity="1"><g transform="translate(94.91176, 113.230311)"><g><path d="M 8.21875 0.273438 L 10.628906 0.335938 L 11.242188 0.273438 L 11.851562 0.121094 L 12.464844 0.03125 L 13.074219 -0.214844 L 13.625 -0.273438 L 14.203125 -0.550781 L 16.28125 -1.800781 L 17.167969 -2.71875 L 17.472656 -3.144531 L 17.808594 -3.820312 L 17.992188 -4.367188 L 18.175781 -4.886719 L 18.359375 -6.414062 L 18.296875 -7.390625 L 17.839844 -9.164062 L 17.503906 -9.652344 L 16.710938 -10.570312 L 16.160156 -11.058594 L 15.671875 -11.300781 L 15.121094 -11.640625 L 12.738281 -12.371094 L 12.128906 -12.464844 L 11.515625 -12.492188 L 10.875 -12.617188 L 9.988281 -12.617188 L 8.371094 -12.953125 L 7.238281 -13.503906 L 6.78125 -13.929688 L 6.660156 -14.847656 L 6.8125 -15.671875 L 7.179688 -16.066406 L 7.636719 -16.402344 L 8.125 -16.679688 L 8.675781 -16.800781 L 9.652344 -16.832031 L 10.628906 -16.710938 L 11.179688 -16.558594 L 11.730469 -16.191406 L 12.25 -15.761719 L 12.707031 -15.152344 L 13.378906 -14.753906 L 14.816406 -14.875 L 15.640625 -14.816406 L 16.25 -14.816406 L 16.800781 -14.753906 L 17.382812 -15.183594 L 17.625 -15.703125 L 17.503906 -16.28125 L 17.441406 -16.863281 L 16.585938 -18.449219 L 15.914062 -19.367188 L 13.898438 -20.773438 L 12.1875 -21.351562 L 10.996094 -21.597656 L 8.644531 -21.660156 L 7.972656 -21.476562 L 7.363281 -21.445312 L 6.8125 -21.351562 L 5.652344 -20.984375 L 4.613281 -20.375 L 3.144531 -19.367188 L 2.078125 -17.929688 L 1.527344 -16.25 L 1.4375 -14.753906 L 1.464844 -13.808594 L 1.679688 -12.585938 L 2.167969 -11.515625 L 3.300781 -10.109375 L 5.375 -8.980469 L 6.476562 -8.613281 L 11.273438 -8.066406 L 12.371094 -7.546875 L 12.769531 -7.179688 L 12.953125 -6.414062 L 12.707031 -5.652344 L 12.3125 -5.191406 L 11.273438 -4.734375 L 10.324219 -4.671875 L 9.773438 -4.582031 L 8.21875 -4.734375 L 7.699219 -5.011719 L 7.179688 -5.347656 L 6.171875 -6.445312 L 5.558594 -6.691406 L 5.011719 -6.628906 L 4.429688 -6.71875 L 2.078125 -6.597656 L 1.527344 -6.355469 L 1.28125 -5.710938 L 1.375 -5.101562 L 1.496094 -4.492188 L 1.679688 -3.941406 L 2.261719 -2.808594 L 2.6875 -2.414062 L 3.085938 -1.953125 L 4.15625 -1.28125 L 4.582031 -0.824219 L 5.164062 -0.550781 L 5.773438 -0.367188 L 6.964844 0.0625 Z M 8.21875 0.273438 "/></g></g></g></svg>