<svg xmlns="http://www.w3.org/2000/svg" xmlns:xlink="http://www.w3.org/1999/xlink" width="200" zoomAndPan="magnify" viewBox="0 0 150 149.999998" height="200" preserveAspectRatio="xMidYMid meet" version="1.0"><defs><g/><clipPath id="230b324ea4"><path d="M 9.070312 6.144531 L 141.070312 6.144531 L 141.070312 138.144531 L 9.070312 138.144531 Z M 9.070312 6.144531 " clip-rule="nonzero"/></clipPath><clipPath id="32ae6d91c2"><path d="M 58.699219 15 L 99.949219 15 L 99.949219 75 L 58.699219 75 Z M 58.699219 15 " clip-rule="nonzero"/></clipPath></defs><g clip-path="url(#230b324ea4)"><path fill="#56aeff" d="M 75.070312 6.144531 C 38.617188 6.144531 9.070312 35.695312 9.070312 72.144531 C 9.070312 108.597656 38.617188 138.144531 75.070312 138.144531 C 111.519531 138.144531 141.070312 108.597656 141.070312 72.144531 C 141.070312 35.695312 111.519531 6.144531 75.070312 6.144531 " fill-opacity="1" fill-rule="nonzero"/></g><g fill="#ffffff" fill-opacity="1"><g transform="translate(38.203124, 101.977496)"><g><path d="M 4.757812 0.105469 L 6.5 0.0351562 L 7.136719 0.0703125 L 7.953125 0 L 8.699219 -0.285156 L 9.019531 -1.03125 L 8.984375 -1.738281 L 9.019531 -2.519531 L 8.949219 -3.835938 L 9.019531 -4.511719 L 8.984375 -5.328125 L 9.304688 -5.964844 L 10.121094 -6.355469 L 10.902344 -6.429688 L 11.648438 -6.285156 L 15.304688 -6.570312 L 18.679688 -7.917969 L 19.210938 -8.34375 L 19.710938 -8.914062 L 20.171875 -9.375 L 20.632812 -9.90625 L 21.378906 -11.042969 L 21.980469 -12.429688 L 22.089844 -13.210938 L 22.300781 -13.777344 L 22.371094 -16.691406 L 22.230469 -17.292969 L 22.125 -18.074219 L 21.699219 -19.390625 L 21.023438 -20.597656 L 20.171875 -21.769531 L 18.574219 -23.152344 L 17.402344 -23.933594 L 15.980469 -24.363281 L 15.375 -24.609375 L 14.667969 -24.609375 L 13.957031 -24.859375 L 12.890625 -24.894531 L 11.753906 -24.859375 L 10.972656 -24.753906 L 8.808594 -24.789062 L 8.097656 -24.894531 L 5.894531 -24.753906 L 5.113281 -24.789062 L 4.472656 -24.894531 L 3.730469 -24.753906 L 2.984375 -24.363281 L 2.664062 -23.792969 L 2.699219 -19.496094 L 2.558594 -18.074219 L 2.628906 -17.402344 L 2.59375 -8.203125 L 2.664062 -7.527344 L 2.628906 -0.957031 L 3.019531 -0.285156 L 4.121094 0.0703125 Z M 10.085938 -12.039062 L 9.375 -12.464844 L 9.054688 -13.070312 L 8.949219 -15.945312 L 9.019531 -16.691406 L 9.019531 -18.148438 L 9.375 -18.820312 L 10.121094 -19.175781 L 13.8125 -19.070312 L 14.523438 -18.75 L 15.09375 -18.359375 L 15.554688 -17.898438 L 15.910156 -17.1875 L 16.015625 -16.546875 L 16.085938 -15.554688 L 16.015625 -14.59375 L 15.765625 -13.957031 L 15.449219 -13.386719 L 14.984375 -12.820312 L 14.417969 -12.394531 L 13.851562 -12.214844 L 12.75 -12.074219 L 10.9375 -12.109375 Z M 10.085938 -12.039062 "/></g></g></g><g fill="#ffffff" fill-opacity="1"><g transform="translate(61.567255, 101.977496)"><g><path d="M 2.699219 -1.277344 L 2.949219 -0.355469 L 3.621094 0 L 4.332031 0.0703125 L 5.824219 -0.0351562 L 7.210938 0.0351562 L 8.558594 -0.0351562 L 9.234375 0.0703125 L 10.015625 0 L 17.046875 0.0351562 L 17.722656 -0.320312 L 18.113281 -1.421875 L 18.074219 -4.296875 L 17.757812 -5.363281 L 17.117188 -5.789062 L 16.371094 -5.71875 L 15.695312 -5.574219 L 14.949219 -5.683594 L 13.496094 -5.648438 L 12.785156 -5.789062 L 12.144531 -5.683594 L 10.761719 -5.753906 L 10.015625 -5.683594 L 9.304688 -5.964844 L 9.019531 -6.675781 L 9.054688 -18.714844 L 8.984375 -19.566406 L 9.054688 -20.988281 L 8.949219 -23.011719 L 8.984375 -23.6875 L 8.628906 -24.46875 L 7.917969 -24.894531 L 6.535156 -24.894531 L 5.824219 -24.753906 L 4.402344 -24.894531 L 3.730469 -24.789062 L 2.984375 -24.503906 L 2.664062 -23.722656 L 2.664062 -18.75 L 2.59375 -18.074219 L 2.664062 -17.367188 L 2.558594 -16.050781 L 2.59375 -15.269531 L 2.664062 -14.59375 Z M 2.699219 -1.277344 "/></g></g></g><g fill="#ffffff" fill-opacity="1"><g transform="translate(80.670453, 101.977496)"><g><path d="M 20.953125 -0.605469 L 21.910156 -0.0351562 L 22.90625 0.0703125 L 23.6875 -0.175781 L 24.042969 -0.886719 L 24.113281 -13.851562 L 24.007812 -14.453125 L 24.007812 -17.96875 L 24.113281 -18.820312 L 24.007812 -23.757812 L 23.652344 -24.46875 L 22.941406 -24.859375 L 18.539062 -24.824219 L 17.863281 -24.433594 L 17.472656 -23.6875 L 17.4375 -22.941406 L 17.542969 -22.371094 L 17.4375 -20.882812 L 17.507812 -20.101562 L 17.4375 -13.742188 L 17.222656 -13.140625 L 16.691406 -13.386719 L 14.167969 -15.910156 L 13.175781 -16.691406 L 6.179688 -23.757812 L 5.648438 -24.183594 L 4.828125 -24.609375 L 3.765625 -24.859375 L 2.949219 -24.503906 L 2.628906 -23.828125 L 2.628906 -13.070312 L 2.59375 -12.464844 L 2.664062 -11.007812 L 2.558594 -10.40625 L 2.628906 -4.582031 L 2.558594 -3.90625 L 2.628906 -0.921875 L 2.949219 -0.25 L 3.691406 0 L 5.148438 0.0703125 L 5.929688 0 L 7.316406 0.105469 L 8.0625 0.0703125 L 8.773438 -0.285156 L 9.125 -1.386719 L 9.164062 -10.371094 L 9.234375 -11.078125 L 9.480469 -11.683594 L 9.945312 -11.507812 L 10.40625 -10.902344 L 12.925781 -8.488281 L 13.386719 -7.953125 L 13.992188 -7.5625 L 19.496094 -2.09375 L 20.417969 -1.066406 Z M 20.953125 -0.605469 "/></g></g></g><g clip-path="url(#32ae6d91c2)"><path fill="#ffffff" d="M 98.382812 15.058594 C 94.617188 15.335938 90.921875 16.230469 87.21875 16.855469 C 83.367188 17.488281 79.675781 17.75 75.8125 17.082031 C 75.730469 17.070312 75.644531 17.082031 75.574219 17.105469 C 75.34375 17.128906 75.117188 17.214844 74.945312 17.378906 C 73.9375 18.289062 73.457031 20.011719 72.902344 21.230469 C 72.335938 22.488281 71.78125 23.742188 71.242188 25.011719 C 70.074219 27.703125 68.957031 30.417969 67.8125 33.121094 C 66.695312 35.789062 65.636719 38.480469 64.527344 41.160156 C 63.410156 43.863281 62.171875 46.507812 61.113281 49.234375 C 60.882812 49.808594 61.664062 50.121094 62.0625 49.785156 C 64.300781 49.867188 66.515625 49.59375 68.75 49.402344 C 69.871094 49.304688 70.988281 49.257812 72.109375 49.234375 C 72.398438 49.222656 72.710938 49.246094 73.035156 49.269531 C 72.035156 50.683594 71.109375 52.152344 70.148438 53.589844 C 68.738281 55.695312 67.308594 57.773438 65.960938 59.929688 C 63.339844 64.101562 60.882812 68.386719 59.054688 72.964844 C 58.707031 73.851562 59.355469 74.460938 60.101562 74.546875 C 60.558594 74.867188 61.171875 75 61.808594 74.714844 C 67.285156 72.261719 71.445312 67.441406 75.441406 63.144531 C 79.832031 58.421875 84.726562 54.199219 89.191406 49.535156 C 91.921875 46.675781 94.21875 43.566406 96.671875 40.476562 C 97.429688 39.523438 96.949219 38.277344 95.710938 38.15625 C 91.417969 37.738281 87.085938 37.871094 82.765625 37.824219 C 88.601562 31.066406 94.230469 24.113281 99.429688 16.878906 C 99.945312 16.148438 99.257812 15 98.382812 15.058594 Z M 93.039062 40.910156 C 91.511719 42.859375 89.742188 44.664062 88.058594 46.421875 C 85.75 48.828125 83.320312 51.125 80.867188 53.386719 C 78.566406 55.492188 76.28125 57.582031 74.140625 59.84375 C 72.109375 61.984375 70.136719 64.175781 67.992188 66.207031 C 66.464844 67.667969 64.867188 69.007812 63.132812 70.167969 C 64.699219 66.902344 66.550781 63.757812 68.390625 60.632812 C 69.351562 59.007812 70.277344 57.355469 71.179688 55.707031 C 71.265625 55.574219 71.351562 55.453125 71.433594 55.324219 C 72.238281 54.113281 73.070312 52.917969 73.851562 51.6875 C 74.464844 50.730469 75.152344 49.785156 75.679688 48.757812 C 75.921875 48.527344 76.054688 48.21875 76.03125 47.917969 C 76.03125 47.90625 76.03125 47.894531 76.03125 47.871094 C 76.003906 47.679688 75.921875 47.5 75.753906 47.332031 C 74.933594 46.484375 73.648438 46.664062 72.539062 46.699219 C 71.3125 46.746094 70.085938 46.914062 68.882812 47.117188 C 66.839844 47.464844 64.855469 47.941406 62.894531 48.550781 C 65.769531 44.019531 67.933594 38.910156 70.015625 34.007812 C 71.144531 31.339844 72.277344 28.660156 73.441406 26.003906 C 74.019531 24.6875 74.609375 23.359375 75.210938 22.058594 C 75.742188 20.898438 76.605469 19.640625 76.777344 18.359375 C 79.820312 19.496094 83.476562 19.1875 86.59375 18.804688 C 89.648438 18.433594 92.679688 17.824219 95.734375 17.558594 C 89.984375 24.496094 84.246094 31.449219 78.230469 38.15625 C 77.292969 39.210938 77.953125 40.789062 79.363281 40.875 C 83.898438 41.171875 88.480469 41.003906 93.039062 40.910156 Z M 93.039062 40.910156 " fill-opacity="1" fill-rule="nonzero"/></g></svg>