<svg xmlns="http://www.w3.org/2000/svg" xmlns:xlink="http://www.w3.org/1999/xlink" width="200" zoomAndPan="magnify" viewBox="0 0 150 149.999998" height="200" preserveAspectRatio="xMidYMid meet" version="1.0"><defs><clipPath id="5323c21122"><path d="M 9.070312 16.410156 L 141.070312 16.410156 L 141.070312 148.410156 L 9.070312 148.410156 Z M 9.070312 16.410156 " clip-rule="nonzero"/></clipPath><clipPath id="79e1eb778d"><path d="M 37.082031 53.78125 L 112.832031 53.78125 L 112.832031 96.5 L 37.082031 96.5 Z M 37.082031 53.78125 " clip-rule="nonzero"/></clipPath></defs><g clip-path="url(#5323c21122)"><path fill="#56aeff" d="M 75.070312 16.410156 C 38.617188 16.410156 9.070312 45.960938 9.070312 82.410156 C 9.070312 118.859375 38.617188 148.410156 75.070312 148.410156 C 111.519531 148.410156 141.070312 118.859375 141.070312 82.410156 C 141.070312 45.960938 111.519531 16.410156 75.070312 16.410156 " fill-opacity="1" fill-rule="nonzero"/></g><g clip-path="url(#79e1eb778d)"><path fill="#ffffff" d="M 98.972656 71.699219 L 100.1875 71.699219 C 100.992188 71.699219 101.398438 72.21875 101.398438 73.257812 C 101.398438 73.726562 101.292969 74.097656 101.085938 74.375 C 100.878906 74.652344 100.566406 74.792969 100.152344 74.792969 L 98.972656 74.792969 Z M 58.789062 71.5625 C 59.34375 71.5625 59.753906 71.792969 60.019531 72.246094 C 60.28125 72.703125 60.414062 73.398438 60.414062 74.335938 L 60.414062 76.136719 C 60.410156 77.023438 60.277344 77.675781 60.011719 78.09375 C 59.746094 78.515625 59.34375 78.726562 58.804688 78.726562 C 58.242188 78.726562 57.828125 78.511719 57.558594 78.082031 C 57.289062 77.652344 57.15625 76.980469 57.15625 76.074219 L 57.15625 74.230469 C 57.164062 73.332031 57.300781 72.664062 57.566406 72.222656 C 57.828125 71.785156 58.238281 71.5625 58.789062 71.5625 Z M 96.894531 69.953125 L 96.894531 80.328125 L 98.972656 80.328125 L 98.972656 76.539062 L 100.003906 76.539062 L 101.550781 80.328125 L 103.785156 80.328125 L 103.785156 80.230469 L 101.984375 75.980469 C 102.976562 75.429688 103.476562 74.464844 103.476562 73.089844 C 103.476562 72.085938 103.191406 71.3125 102.625 70.769531 C 102.054688 70.226562 101.25 69.953125 100.210938 69.953125 Z M 89.644531 69.953125 L 89.644531 80.328125 L 95.554688 80.328125 L 95.554688 78.589844 L 91.722656 78.589844 L 91.722656 75.839844 L 94.960938 75.839844 L 94.960938 74.152344 L 91.722656 74.152344 L 91.722656 71.699219 L 95.542969 71.699219 L 95.542969 69.953125 Z M 80.59375 69.953125 L 80.59375 80.328125 L 82.671875 80.328125 L 82.671875 75.890625 L 85.742188 75.890625 L 85.742188 80.328125 L 87.8125 80.328125 L 87.8125 69.953125 L 85.742188 69.953125 L 85.742188 74.152344 L 82.671875 74.152344 L 82.671875 69.953125 Z M 63.617188 69.953125 L 63.617188 77.085938 C 63.617188 78.183594 63.90625 79.023438 64.488281 79.601562 C 65.070312 80.179688 65.914062 80.472656 67.015625 80.472656 C 68.101562 80.472656 68.933594 80.183594 69.511719 79.613281 C 70.09375 79.039062 70.386719 78.214844 70.398438 77.136719 L 70.398438 69.953125 L 68.316406 69.953125 L 68.316406 77.128906 C 68.3125 77.699219 68.21875 78.109375 68.035156 78.359375 C 67.851562 78.609375 67.511719 78.730469 67.015625 78.730469 C 66.523438 78.730469 66.179688 78.605469 65.992188 78.355469 C 65.804688 78.101562 65.707031 77.683594 65.707031 77.09375 L 65.707031 69.953125 Z M 46.128906 69.953125 L 49.074219 80.328125 L 51.238281 80.328125 L 54.210938 69.953125 L 51.890625 69.953125 L 50.15625 77.476562 L 48.433594 69.953125 Z M 75.589844 69.8125 C 74.449219 69.8125 73.558594 70.195312 72.917969 70.96875 C 72.277344 71.742188 71.957031 72.839844 71.957031 74.265625 L 71.957031 76.011719 C 71.957031 77.441406 72.265625 78.542969 72.886719 79.3125 C 73.507812 80.085938 74.398438 80.472656 75.5625 80.472656 C 76.671875 80.472656 77.527344 80.167969 78.136719 79.558594 C 78.746094 78.949219 79.074219 78.054688 79.125 76.871094 L 77.046875 76.871094 C 77.019531 77.574219 76.902344 78.0625 76.695312 78.328125 C 76.488281 78.597656 76.109375 78.730469 75.5625 78.730469 C 75.007812 78.730469 74.613281 78.539062 74.386719 78.15625 C 74.15625 77.769531 74.042969 77.0625 74.042969 76.03125 L 74.042969 74.070312 C 74.058594 73.175781 74.179688 72.53125 74.410156 72.136719 C 74.640625 71.746094 75.035156 71.550781 75.589844 71.550781 C 76.136719 71.550781 76.515625 71.6875 76.71875 71.964844 C 76.925781 72.246094 77.035156 72.75 77.054688 73.480469 L 79.140625 73.480469 C 79.058594 72.296875 78.730469 71.390625 78.148438 70.757812 C 77.566406 70.125 76.714844 69.8125 75.589844 69.8125 Z M 58.789062 69.8125 C 57.625 69.8125 56.714844 70.210938 56.058594 71.011719 C 55.402344 71.8125 55.078125 72.925781 55.078125 74.351562 L 55.078125 76.125 C 55.085938 77.496094 55.421875 78.566406 56.082031 79.328125 C 56.742188 80.089844 57.648438 80.472656 58.804688 80.472656 C 59.960938 80.472656 60.867188 80.085938 61.523438 79.316406 C 62.175781 78.546875 62.5 77.464844 62.5 76.074219 L 62.5 74.300781 C 62.492188 72.878906 62.15625 71.777344 61.496094 70.992188 C 60.835938 70.203125 59.933594 69.8125 58.789062 69.8125 Z M 37.082031 53.78125 L 112.832031 53.78125 L 112.832031 54.78125 L 112.792969 54.789062 C 112.707031 54.828125 112.628906 54.886719 112.558594 54.964844 C 112.414062 55.121094 112.34375 55.3125 112.34375 55.535156 C 112.34375 55.761719 112.414062 55.953125 112.558594 56.109375 C 112.628906 56.1875 112.707031 56.246094 112.792969 56.285156 L 112.832031 56.292969 L 112.832031 57.332031 L 112.792969 57.339844 C 112.707031 57.378906 112.628906 57.4375 112.558594 57.515625 C 112.414062 57.671875 112.34375 57.863281 112.34375 58.085938 C 112.34375 58.3125 112.414062 58.5 112.558594 58.660156 C 112.628906 58.738281 112.707031 58.796875 112.792969 58.835938 L 112.832031 58.84375 L 112.832031 59.988281 L 112.792969 59.996094 C 112.707031 60.035156 112.628906 60.09375 112.558594 60.171875 C 112.414062 60.328125 112.34375 60.519531 112.34375 60.742188 C 112.34375 60.96875 112.414062 61.160156 112.558594 61.316406 C 112.628906 61.394531 112.707031 61.453125 112.792969 61.492188 L 112.832031 61.5 L 112.832031 62.539062 L 112.792969 62.546875 C 112.707031 62.585938 112.628906 62.644531 112.558594 62.722656 C 112.414062 62.878906 112.34375 63.070312 112.34375 63.292969 C 112.34375 63.519531 112.414062 63.707031 112.558594 63.867188 C 112.628906 63.945312 112.707031 64.003906 112.792969 64.042969 L 112.832031 64.050781 L 112.832031 65.195312 L 112.792969 65.203125 C 112.707031 65.242188 112.628906 65.300781 112.558594 65.378906 C 112.414062 65.535156 112.34375 65.726562 112.34375 65.949219 C 112.34375 66.175781 112.414062 66.367188 112.558594 66.523438 C 112.628906 66.601562 112.707031 66.660156 112.792969 66.699219 L 112.832031 66.707031 L 112.832031 67.746094 L 112.792969 67.753906 C 112.707031 67.792969 112.628906 67.851562 112.558594 67.929688 C 112.414062 68.085938 112.34375 68.277344 112.34375 68.5 C 112.34375 68.726562 112.414062 68.914062 112.558594 69.070312 C 112.628906 69.148438 112.707031 69.210938 112.792969 69.25 L 112.832031 69.253906 L 112.832031 70.402344 L 112.792969 70.410156 C 112.707031 70.449219 112.628906 70.507812 112.558594 70.585938 C 112.414062 70.742188 112.34375 70.933594 112.34375 71.15625 L 112.429688 71.386719 L 112.132812 71.417969 C 110.550781 71.773438 109.359375 73.304688 109.359375 75.140625 C 109.359375 76.976562 110.550781 78.507812 112.132812 78.863281 L 112.351562 78.886719 L 112.34375 78.914062 C 112.34375 79.140625 112.414062 79.328125 112.558594 79.484375 C 112.628906 79.5625 112.707031 79.621094 112.792969 79.660156 L 112.832031 79.667969 L 112.832031 80.816406 L 112.792969 80.824219 C 112.707031 80.863281 112.628906 80.921875 112.558594 81 C 112.414062 81.15625 112.34375 81.347656 112.34375 81.570312 C 112.34375 81.796875 112.414062 81.984375 112.558594 82.140625 C 112.628906 82.222656 112.707031 82.28125 112.792969 82.320312 L 112.832031 82.328125 L 112.832031 83.472656 L 112.792969 83.480469 C 112.707031 83.519531 112.628906 83.578125 112.558594 83.65625 C 112.414062 83.8125 112.34375 84.003906 112.34375 84.226562 C 112.34375 84.453125 112.414062 84.644531 112.558594 84.800781 C 112.628906 84.878906 112.707031 84.9375 112.792969 84.976562 L 112.832031 84.984375 L 112.832031 86.128906 L 112.792969 86.136719 C 112.707031 86.175781 112.628906 86.234375 112.558594 86.3125 C 112.414062 86.46875 112.34375 86.660156 112.34375 86.882812 C 112.34375 87.109375 112.414062 87.300781 112.558594 87.457031 C 112.628906 87.535156 112.707031 87.59375 112.792969 87.632812 L 112.832031 87.640625 L 112.832031 88.785156 L 112.792969 88.792969 C 112.707031 88.832031 112.628906 88.890625 112.558594 88.96875 C 112.414062 89.125 112.34375 89.316406 112.34375 89.539062 C 112.34375 89.765625 112.414062 89.957031 112.558594 90.113281 C 112.628906 90.191406 112.707031 90.25 112.792969 90.289062 L 112.832031 90.296875 L 112.832031 91.441406 L 112.792969 91.449219 C 112.707031 91.488281 112.628906 91.546875 112.558594 91.625 C 112.414062 91.78125 112.34375 91.972656 112.34375 92.199219 C 112.34375 92.421875 112.414062 92.613281 112.558594 92.769531 C 112.628906 92.847656 112.707031 92.90625 112.792969 92.945312 L 112.832031 92.953125 L 112.832031 94.097656 L 112.792969 94.105469 C 112.707031 94.144531 112.628906 94.203125 112.558594 94.28125 C 112.414062 94.4375 112.34375 94.628906 112.34375 94.855469 C 112.34375 95.078125 112.414062 95.269531 112.558594 95.425781 C 112.628906 95.503906 112.707031 95.5625 112.792969 95.601562 L 112.832031 95.609375 L 112.832031 96.5 L 37.082031 96.5 L 37.082031 95.582031 L 37.140625 95.570312 C 37.226562 95.53125 37.304688 95.472656 37.378906 95.394531 C 37.519531 95.238281 37.59375 95.046875 37.59375 94.824219 C 37.59375 94.597656 37.519531 94.40625 37.378906 94.25 C 37.304688 94.171875 37.226562 94.113281 37.140625 94.074219 L 37.082031 94.0625 L 37.082031 92.925781 L 37.140625 92.914062 C 37.226562 92.875 37.304688 92.816406 37.378906 92.738281 C 37.519531 92.582031 37.59375 92.390625 37.59375 92.164062 C 37.59375 91.941406 37.519531 91.75 37.378906 91.59375 C 37.304688 91.515625 37.226562 91.457031 37.140625 91.417969 L 37.082031 91.40625 L 37.082031 90.269531 L 37.140625 90.257812 C 37.226562 90.21875 37.304688 90.160156 37.378906 90.082031 C 37.519531 89.925781 37.59375 89.734375 37.59375 89.507812 C 37.59375 89.285156 37.519531 89.09375 37.378906 88.9375 C 37.304688 88.859375 37.226562 88.800781 37.140625 88.761719 L 37.082031 88.75 L 37.082031 87.613281 L 37.140625 87.601562 C 37.226562 87.558594 37.304688 87.5 37.378906 87.421875 C 37.519531 87.265625 37.59375 87.078125 37.59375 86.851562 C 37.59375 86.628906 37.519531 86.4375 37.378906 86.28125 C 37.304688 86.203125 37.226562 86.144531 37.140625 86.105469 L 37.082031 86.09375 L 37.082031 84.953125 L 37.140625 84.941406 C 37.226562 84.902344 37.304688 84.84375 37.378906 84.765625 C 37.519531 84.609375 37.59375 84.421875 37.59375 84.195312 C 37.59375 83.972656 37.519531 83.78125 37.378906 83.625 C 37.304688 83.546875 37.226562 83.488281 37.140625 83.449219 L 37.082031 83.4375 L 37.082031 82.296875 L 37.140625 82.285156 C 37.226562 82.246094 37.304688 82.1875 37.378906 82.109375 C 37.519531 81.953125 37.59375 81.765625 37.59375 81.539062 C 37.59375 81.316406 37.519531 81.125 37.378906 80.96875 C 37.304688 80.890625 37.226562 80.832031 37.140625 80.792969 L 37.082031 80.78125 L 37.082031 79.640625 L 37.140625 79.628906 C 37.226562 79.589844 37.304688 79.53125 37.378906 79.453125 L 37.589844 78.882812 L 37.78125 78.863281 C 39.363281 78.507812 40.554688 76.976562 40.554688 75.140625 C 40.554688 73.304688 39.363281 71.773438 37.78125 71.417969 L 37.492188 71.386719 L 37.59375 71.125 C 37.59375 70.902344 37.519531 70.710938 37.378906 70.554688 C 37.304688 70.476562 37.226562 70.417969 37.140625 70.378906 L 37.082031 70.367188 L 37.082031 69.226562 L 37.140625 69.214844 C 37.226562 69.175781 37.304688 69.117188 37.378906 69.039062 C 37.519531 68.882812 37.59375 68.695312 37.59375 68.46875 C 37.59375 68.246094 37.519531 68.054688 37.378906 67.898438 C 37.304688 67.820312 37.226562 67.761719 37.140625 67.722656 L 37.082031 67.710938 L 37.082031 66.679688 L 37.140625 66.664062 C 37.226562 66.625 37.304688 66.566406 37.378906 66.488281 C 37.519531 66.332031 37.59375 66.144531 37.59375 65.917969 C 37.59375 65.695312 37.519531 65.503906 37.378906 65.347656 C 37.304688 65.269531 37.226562 65.210938 37.140625 65.171875 L 37.082031 65.160156 L 37.082031 64.019531 L 37.140625 64.007812 C 37.226562 63.96875 37.304688 63.910156 37.378906 63.832031 C 37.519531 63.675781 37.59375 63.488281 37.59375 63.261719 C 37.59375 63.039062 37.519531 62.847656 37.378906 62.691406 C 37.304688 62.613281 37.226562 62.554688 37.140625 62.515625 L 37.082031 62.503906 L 37.082031 61.472656 L 37.140625 61.460938 C 37.226562 61.417969 37.304688 61.359375 37.378906 61.28125 C 37.519531 61.125 37.59375 60.9375 37.59375 60.710938 C 37.59375 60.488281 37.519531 60.296875 37.378906 60.140625 C 37.304688 60.0625 37.226562 60.003906 37.140625 59.964844 L 37.082031 59.953125 L 37.082031 58.8125 L 37.140625 58.800781 C 37.226562 58.761719 37.304688 58.703125 37.378906 58.625 C 37.519531 58.46875 37.59375 58.28125 37.59375 58.054688 C 37.59375 57.832031 37.519531 57.640625 37.378906 57.484375 C 37.304688 57.40625 37.226562 57.347656 37.140625 57.308594 L 37.082031 57.296875 L 37.082031 56.265625 L 37.140625 56.253906 C 37.226562 56.214844 37.304688 56.15625 37.378906 56.078125 C 37.519531 55.917969 37.59375 55.730469 37.59375 55.503906 C 37.59375 55.28125 37.519531 55.089844 37.378906 54.933594 C 37.304688 54.855469 37.226562 54.796875 37.140625 54.757812 L 37.082031 54.746094 Z M 37.082031 53.78125 " fill-opacity="1" fill-rule="evenodd"/></g></svg>